<svg xmlns="http://www.w3.org/2000/svg" width="800" height="420" viewBox="0 0 800 420">
  <defs>
    <style>
      .label { fill: #C0C0C8; font-family: monospace; font-size: 10px; }
      .amber { fill: #D4A845; }
      .green { fill: #7CB87C; }
      .dim { fill: #4A4A50; }
      .title { fill: #D4A845; font-family: monospace; font-size: 12px; font-weight: bold; }
    </style>
  </defs>

  <rect width="800" height="420" fill="#0A0A12"/>
  <rect x="1" y="1" width="798" height="418" fill="none" stroke="#404048" stroke-width="1"/>

  <text x="20" y="24" class="title">VEHICLE ROSTER — TRAVERSAL &amp; CARGO COMPARISON</text>
  <line x1="20" y1="30" x2="780" y2="30" stroke="#404048" stroke-width="1"/>

  <!-- ═══ ROVER ═══ -->
  <rect x="20" y="45" width="240" height="330" rx="5" fill="#0E0E1A" stroke="#7CB87C" stroke-width="1.5"/>
  <!-- Header -->
  <rect x="20" y="45" width="240" height="34" rx="5" fill="#0A1A0A"/>
  <text x="140" y="67" fill="#7CB87C" font-family="monospace" font-size="14" text-anchor="middle" font-weight="bold">ROVER</text>

  <!-- Rover silhouette (side view) -->
  <rect x="60" y="100" width="160" height="50" rx="6" fill="#141414" stroke="#7CB87C" stroke-width="1.5"/>
  <rect x="80" y="85" width="90" height="30" rx="4" fill="#141414" stroke="#7CB87C" stroke-width="1"/>
  <!-- Windshield -->
  <rect x="90" y="88" width="70" height="24" rx="3" fill="#0A1A0A" stroke="#4A4A50" stroke-width="1"/>
  <!-- Wheels -->
  <circle cx="90" cy="155" r="18" fill="#0A0A12" stroke="#7CB87C" stroke-width="2"/>
  <circle cx="90" cy="155" r="8" fill="none" stroke="#7CB87C" stroke-width="1" opacity="0.5"/>
  <circle cx="190" cy="155" r="18" fill="#0A0A12" stroke="#7CB87C" stroke-width="2"/>
  <circle cx="190" cy="155" r="8" fill="none" stroke="#7CB87C" stroke-width="1" opacity="0.5"/>
  <!-- Cargo bed -->
  <rect x="185" y="100" width="35" height="40" rx="2" fill="#0A1A0A" stroke="#4A4A50" stroke-width="1"/>

  <!-- Stats -->
  <!-- Speed -->
  <text x="35" y="196" fill="#4A4A50" font-family="monospace" font-size="9">SPEED</text>
  <rect x="90" y="186" width="140" height="10" rx="2" fill="#070710" stroke="#404048" stroke-width="0.5"/>
  <rect x="91" y="187" width="40" height="8" rx="1" fill="#7CB87C" opacity="0.7"/>
  <text x="234" y="196" fill="#7CB87C" font-family="monospace" font-size="9">280 px/s</text>

  <!-- Cargo -->
  <text x="35" y="215" fill="#4A4A50" font-family="monospace" font-size="9">CARGO</text>
  <rect x="90" y="205" width="140" height="10" rx="2" fill="#070710" stroke="#404048" stroke-width="0.5"/>
  <rect x="91" y="206" width="42" height="8" rx="1" fill="#D4A845" opacity="0.7"/>
  <text x="234" y="215" fill="#D4A845" font-family="monospace" font-size="9">+15 units</text>

  <!-- Range -->
  <text x="35" y="234" fill="#4A4A50" font-family="monospace" font-size="9">RANGE</text>
  <rect x="90" y="224" width="140" height="10" rx="2" fill="#070710" stroke="#404048" stroke-width="0.5"/>
  <rect x="91" y="225" width="56" height="8" rx="1" fill="#C0C0C8" opacity="0.5"/>
  <text x="234" y="234" fill="#C0C0C8" font-family="monospace" font-size="9">GROUND</text>

  <line x1="30" y1="244" x2="250" y2="244" stroke="#404048" stroke-width="1"/>

  <text x="35" y="262" fill="#4A4A50" font-family="monospace" font-size="9">UNLOCK:</text>
  <text x="35" y="276" fill="#7CB87C" font-family="monospace" font-size="9">Phase 1</text>
  <text x="35" y="292" fill="#4A4A50" font-family="monospace" font-size="9">COST:</text>
  <text x="35" y="306" fill="#C0C0C8" font-family="monospace" font-size="9">300 CR (shop)</text>
  <text x="35" y="320" fill="#4A4A50" font-family="monospace" font-size="9">-OR-</text>
  <text x="35" y="334" fill="#C0C0C8" font-family="monospace" font-size="9">30 Steel + 10 Alloy</text>
  <text x="35" y="350" fill="#4A4A50" font-family="monospace" font-size="9">FUEL:</text>
  <text x="35" y="364" fill="#C0C0C8" font-family="monospace" font-size="9">Gas (30 unit tank)</text>

  <!-- ═══ SPEEDER ═══ -->
  <rect x="280" y="45" width="240" height="330" rx="5" fill="#0E0E1A" stroke="#D4A845" stroke-width="2"/>
  <!-- Header with "RECOMMENDED" badge -->
  <rect x="280" y="45" width="240" height="34" rx="5" fill="#1A1400"/>
  <text x="400" y="67" fill="#D4A845" font-family="monospace" font-size="14" text-anchor="middle" font-weight="bold">SPEEDER</text>

  <!-- Speeder silhouette (lower, sleeker) -->
  <ellipse cx="400" cy="128" rx="80" ry="22" fill="#141414" stroke="#D4A845" stroke-width="1.5"/>
  <!-- Cockpit bubble -->
  <ellipse cx="385" cy="112" rx="30" ry="14" fill="#0A1400" stroke="#D4A845" stroke-width="1"/>
  <!-- Engine nacelles -->
  <rect x="310" y="120" width="30" height="12" rx="6" fill="#1A0A00" stroke="#D4A845" stroke-width="1" opacity="0.8"/>
  <rect x="458" y="120" width="30" height="12" rx="6" fill="#1A0A00" stroke="#D4A845" stroke-width="1" opacity="0.8"/>
  <!-- Engine glow -->
  <ellipse cx="310" cy="126" rx="4" ry="4" fill="#D4A845" opacity="0.6"/>
  <ellipse cx="488" cy="126" rx="4" ry="4" fill="#D4A845" opacity="0.6"/>
  <!-- Hover lines -->
  <line x1="340" y1="148" x2="360" y2="153" stroke="#D4A845" stroke-width="0.5" opacity="0.4"/>
  <line x1="370" y1="150" x2="390" y2="155" stroke="#D4A845" stroke-width="0.5" opacity="0.4"/>
  <line x1="400" y1="150" x2="430" y2="153" stroke="#D4A845" stroke-width="0.5" opacity="0.4"/>

  <!-- Survey mount indicator -->
  <rect x="300" y="155" width="200" height="16" rx="2" fill="#1A1400" stroke="#D4A845" stroke-width="0.5"/>
  <text x="400" y="166" fill="#D4A845" font-family="monospace" font-size="8" text-anchor="middle">★ VEHICLE SURVEY MOUNT upgradeable</text>

  <!-- Stats -->
  <text x="295" y="196" fill="#4A4A50" font-family="monospace" font-size="9">SPEED</text>
  <rect x="350" y="186" width="140" height="10" rx="2" fill="#070710" stroke="#404048" stroke-width="0.5"/>
  <rect x="351" y="187" width="98" height="8" rx="1" fill="#D4A845" opacity="0.8"/>
  <text x="494" y="196" fill="#D4A845" font-family="monospace" font-size="9">520 px/s</text>

  <text x="295" y="215" fill="#4A4A50" font-family="monospace" font-size="9">CARGO</text>
  <rect x="350" y="205" width="140" height="10" rx="2" fill="#070710" stroke="#404048" stroke-width="0.5"/>
  <rect x="351" y="206" width="28" height="8" rx="1" fill="#D4A845" opacity="0.7"/>
  <text x="494" y="215" fill="#D4A845" font-family="monospace" font-size="9">+10 units</text>

  <text x="295" y="234" fill="#4A4A50" font-family="monospace" font-size="9">RANGE</text>
  <rect x="350" y="224" width="140" height="10" rx="2" fill="#070710" stroke="#404048" stroke-width="0.5"/>
  <rect x="351" y="225" width="84" height="8" rx="1" fill="#D4A845" opacity="0.7"/>
  <text x="494" y="234" fill="#D4A845" font-family="monospace" font-size="9">GROUND+HIGH</text>

  <line x1="290" y1="244" x2="510" y2="244" stroke="#404048" stroke-width="1"/>

  <text x="295" y="262" fill="#4A4A50" font-family="monospace" font-size="9">UNLOCK:</text>
  <text x="295" y="276" fill="#D4A845" font-family="monospace" font-size="9">Phase 2</text>
  <text x="295" y="292" fill="#4A4A50" font-family="monospace" font-size="9">COST:</text>
  <text x="295" y="306" fill="#C0C0C8" font-family="monospace" font-size="9">1,200 CR (shop)</text>
  <text x="295" y="320" fill="#4A4A50" font-family="monospace" font-size="9">-OR-</text>
  <text x="295" y="334" fill="#C0C0C8" font-family="monospace" font-size="9">20 Steel+15 Alloy+5 Crystal</text>
  <text x="295" y="350" fill="#4A4A50" font-family="monospace" font-size="9">FUEL:</text>
  <text x="295" y="364" fill="#C0C0C8" font-family="monospace" font-size="9">Gas (20 unit tank)</text>

  <!-- ═══ SHUTTLE ═══ -->
  <rect x="540" y="45" width="240" height="330" rx="5" fill="#0E0E1A" stroke="#C0C0C8" stroke-width="1.5"/>
  <rect x="540" y="45" width="240" height="34" rx="5" fill="#141428"/>
  <text x="660" y="67" fill="#C0C0C8" font-family="monospace" font-size="14" text-anchor="middle" font-weight="bold">SHUTTLE</text>

  <!-- Shuttle silhouette (boxy, angular) -->
  <polygon points="610,90 660,82 710,90 720,140 600,140" fill="#141414" stroke="#C0C0C8" stroke-width="1.5"/>
  <!-- Engine pods -->
  <rect x="596" y="118" width="28" height="14" rx="4" fill="#141428" stroke="#C0C0C8" stroke-width="1"/>
  <rect x="698" y="118" width="28" height="14" rx="4" fill="#141428" stroke="#C0C0C8" stroke-width="1"/>
  <!-- Cockpit -->
  <polygon points="640,88 680,88 685,105 635,105" fill="#0A0A20" stroke="#8080C0" stroke-width="1"/>
  <!-- Cargo doors -->
  <line x1="608" y1="108" x2="712" y2="108" stroke="#4A4A50" stroke-width="1" stroke-dasharray="4,3"/>
  <text x="660" y="118" fill="#4A4A50" font-family="monospace" font-size="8" text-anchor="middle">CARGO BAY</text>

  <!-- Landing struts -->
  <line x1="615" y1="140" x2="605" y2="158" stroke="#C0C0C8" stroke-width="1.5"/>
  <line x1="660" y1="140" x2="660" y2="158" stroke="#C0C0C8" stroke-width="1.5"/>
  <line x1="705" y1="140" x2="715" y2="158" stroke="#C0C0C8" stroke-width="1.5"/>
  <ellipse cx="605" cy="160" rx="10" ry="4" fill="none" stroke="#C0C0C8" stroke-width="1"/>
  <ellipse cx="660" cy="160" rx="10" ry="4" fill="none" stroke="#C0C0C8" stroke-width="1"/>
  <ellipse cx="715" cy="160" rx="10" ry="4" fill="none" stroke="#C0C0C8" stroke-width="1"/>

  <!-- Stats -->
  <text x="555" y="196" fill="#4A4A50" font-family="monospace" font-size="9">SPEED</text>
  <rect x="610" y="186" width="140" height="10" rx="2" fill="#070710" stroke="#404048" stroke-width="0.5"/>
  <rect x="611" y="187" width="30" height="8" rx="1" fill="#C0C0C8" opacity="0.5"/>
  <text x="754" y="196" fill="#C0C0C8" font-family="monospace" font-size="9">200 px/s</text>

  <text x="555" y="215" fill="#4A4A50" font-family="monospace" font-size="9">CARGO</text>
  <rect x="610" y="205" width="140" height="10" rx="2" fill="#070710" stroke="#404048" stroke-width="0.5"/>
  <rect x="611" y="206" width="112" height="8" rx="1" fill="#D4A845" opacity="0.8"/>
  <text x="754" y="215" fill="#D4A845" font-family="monospace" font-size="9">+40 units</text>

  <text x="555" y="234" fill="#4A4A50" font-family="monospace" font-size="9">RANGE</text>
  <rect x="610" y="224" width="140" height="10" rx="2" fill="#070710" stroke="#404048" stroke-width="0.5"/>
  <rect x="611" y="225" width="140" height="8" rx="1" fill="#C0C0C8" opacity="0.6"/>
  <text x="754" y="234" fill="#C0C0C8" font-family="monospace" font-size="9">ALL ZONES</text>

  <line x1="550" y1="244" x2="770" y2="244" stroke="#404048" stroke-width="1"/>

  <text x="555" y="262" fill="#4A4A50" font-family="monospace" font-size="9">UNLOCK:</text>
  <text x="555" y="276" fill="#C0C0C8" font-family="monospace" font-size="9">Phase 3 (craft only)</text>
  <text x="555" y="292" fill="#4A4A50" font-family="monospace" font-size="9">COST:</text>
  <text x="555" y="306" fill="#C0C0C8" font-family="monospace" font-size="9">50 Steel+30 Alloy</text>
  <text x="555" y="320" fill="#C0C0C8" font-family="monospace" font-size="9">+15 Crystal+10 Void</text>
  <text x="555" y="334" fill="#4A4A50" font-family="monospace" font-size="9">FUEL:</text>
  <text x="555" y="348" fill="#C0C0C8" font-family="monospace" font-size="9">Rocket Fuel (15 unit)</text>
  <text x="555" y="364" fill="#D4A845" font-family="monospace" font-size="9">★ Crosses restricted zones</text>

  <!-- Footer note -->
  <rect x="20" y="388" width="760" height="22" rx="3" fill="#0E0E1A" stroke="#404048" stroke-width="1"/>
  <text x="400" y="403" fill="#4A4A50" font-family="monospace" font-size="10" text-anchor="middle">Some deposits are REGION-LOCKED — require specific vehicle tier to access. Rover → Ravines. Speeder → High-Alt. Shuttle → Atmospheric Zones.</text>
</svg>
