<svg xmlns="http://www.w3.org/2000/svg" width="800" height="620" viewBox="0 0 800 620">
  <defs>
    <style>
      .label { fill: #C0C0C8; font-family: monospace; font-size: 10px; }
      .amber { fill: #D4A845; }
      .green { fill: #7CB87C; }
      .dim { fill: #4A4A50; }
      .title { fill: #D4A845; font-family: monospace; font-size: 12px; font-weight: bold; }
      .common { fill: #7CB87C; }
      .uncommon { fill: #D4A845; }
      .rare { fill: #C090C8; }
      .unique { fill: #60C8D4; }
    </style>
  </defs>

  <rect width="800" height="620" fill="#0A0A12"/>
  <rect x="1" y="1" width="798" height="618" fill="none" stroke="#404048" stroke-width="1"/>

  <text x="20" y="24" class="title">PLANET RESOURCE IDENTITIES — FULL COMPARISON</text>
  <line x1="20" y1="30" x2="780" y2="30" stroke="#404048" stroke-width="1"/>

  <!-- Legend row -->
  <circle cx="20" cy="46" r="5" fill="#7CB87C"/>
  <text x="30" y="50" fill="#7CB87C" font-family="monospace" font-size="9">COMMON</text>
  <circle cx="105" cy="46" r="5" fill="#D4A845"/>
  <text x="115" y="50" fill="#D4A845" font-family="monospace" font-size="9">UNCOMMON</text>
  <circle cx="210" cy="46" r="5" fill="#C090C8"/>
  <text x="220" y="50" fill="#C090C8" font-family="monospace" font-size="9">RARE</text>
  <circle cx="275" cy="46" r="5" fill="#60C8D4"/>
  <text x="285" y="50" fill="#60C8D4" font-family="monospace" font-size="9">UNIQUE / EXCLUSIVE</text>
  <text x="550" y="50" fill="#4A4A50" font-family="monospace" font-size="9">★ = exclusive to this planet</text>

  <!-- Divider -->
  <line x1="20" y1="58" x2="780" y2="58" stroke="#404048" stroke-width="1"/>

  <!-- Column boundaries -->
  <line x1="280" y1="58" x2="280" y2="608" stroke="#404048" stroke-width="1"/>
  <line x1="540" y1="58" x2="540" y2="608" stroke="#404048" stroke-width="1"/>

  <!-- ═══════════════ A1 COLUMN ═══════════════ -->
  <!-- Header -->
  <rect x="20" y="62" width="256" height="52" rx="4" fill="#0A1A0A"/>
  <!-- Planet A1 icon: asteroid shape -->
  <ellipse cx="50" cy="88" rx="22" ry="22" fill="#181818" stroke="#7CB87C" stroke-width="2"/>
  <ellipse cx="50" cy="94" rx="18" ry="6" fill="none" stroke="#7CB87C" stroke-width="1" opacity="0.4"/>
  <circle cx="43" cy="82" r="6" fill="#141414" stroke="#404048" stroke-width="0.5"/>
  <circle cx="55" cy="88" r="4" fill="#101010" stroke="#404048" stroke-width="0.5"/>
  <text x="80" y="80" fill="#7CB87C" font-family="monospace" font-size="12" font-weight="bold">A1 — IRON ROCK</text>
  <text x="80" y="96" fill="#4A4A50" font-family="monospace" font-size="9">Asteroid Field  ·  Starting Zone</text>
  <text x="80" y="108" fill="#7CB87C" font-family="monospace" font-size="9">■ PHASE 1 — FIRST WORLD</text>

  <!-- Surface Characteristics box -->
  <rect x="20" y="118" width="256" height="64" rx="3" fill="#0E0E1A" stroke="#404048" stroke-width="1"/>
  <text x="30" y="133" fill="#4A4A50" font-family="monospace" font-size="8">SURFACE CONDITIONS</text>
  <text x="30" y="148" fill="#C0C0C8" font-family="monospace" font-size="9">• Low gravity — fast movement</text>
  <text x="30" y="162" fill="#C0C0C8" font-family="monospace" font-size="9">• Full survey range (no interference)</text>
  <text x="30" y="175" fill="#D4A845" font-family="monospace" font-size="9">• Shallow deposits, fast exhaust (6-20h)</text>

  <!-- Resources -->
  <text x="30" y="202" fill="#4A4A50" font-family="monospace" font-size="8">RESOURCES</text>
  <line x1="20" y1="207" x2="276" y2="207" stroke="#404048" stroke-width="0.5"/>

  <!-- Vorax Ore -->
  <circle cx="32" cy="222" r="5" fill="#7CB87C"/>
  <rect x="40" y="214" width="10" height="14" rx="2" fill="#3A5A3A" stroke="#7CB87C" stroke-width="1"/>
  <text x="56" y="224" fill="#7CB87C" font-family="monospace" font-size="9" font-weight="bold">VORAX ORE ★</text>
  <text x="30" y="238" fill="#4A4A50" font-family="monospace" font-size="8">OQ 400-700 · MA 450-750 · Mineral Harv.</text>
  <text x="30" y="250" fill="#4A4A50" font-family="monospace" font-size="8">→ Steel Plates  (high density deposits)</text>

  <line x1="25" y1="258" x2="271" y2="258" stroke="#404048" stroke-width="0.5" stroke-dasharray="2,3"/>

  <!-- Krysite -->
  <circle cx="32" cy="272" r="5" fill="#D4A845"/>
  <polygon points="40,268 50,264 50,278 40,274" fill="#3A3A0A" stroke="#D4A845" stroke-width="1"/>
  <text x="56" y="274" fill="#D4A845" font-family="monospace" font-size="9" font-weight="bold">KRYSITE</text>
  <text x="30" y="288" fill="#4A4A50" font-family="monospace" font-size="8">High MA, SR · Crystal Harv.</text>
  <text x="30" y="300" fill="#4A4A50" font-family="monospace" font-size="8">→ Alloy Rods  (used everywhere)</text>

  <line x1="25" y1="308" x2="271" y2="308" stroke="#404048" stroke-width="0.5" stroke-dasharray="2,3"/>

  <!-- Raw Crystals -->
  <circle cx="32" cy="322" r="5" fill="#C090C8"/>
  <polygon points="44,316 50,314 52,326 46,328 40,328" fill="#1A0A2A" stroke="#C090C8" stroke-width="1"/>
  <text x="56" y="324" fill="#C090C8" font-family="monospace" font-size="9" font-weight="bold">RAW CRYSTALS</text>
  <text x="30" y="338" fill="#4A4A50" font-family="monospace" font-size="8">Surface clusters · Hand-harvest Phase 1-2</text>
  <text x="30" y="350" fill="#C090C8" font-family="monospace" font-size="8">Req. Crystal Bore upgrade to automate</text>

  <!-- Harvester note -->
  <rect x="20" y="364" width="256" height="32" rx="3" fill="#0A1A0A" stroke="#404048" stroke-width="1"/>
  <text x="30" y="379" fill="#4A4A50" font-family="monospace" font-size="8">HARVESTERS:  Mineral · Crystal · Gas Coll.</text>
  <text x="30" y="391" fill="#7CB87C" font-family="monospace" font-size="8">ER 550-850 — fastest raw throughput</text>

  <!-- Export box -->
  <rect x="20" y="400" width="256" height="44" rx="3" fill="#0A2A0A" stroke="#7CB87C" stroke-width="1"/>
  <text x="30" y="416" fill="#7CB87C" font-family="monospace" font-size="9" font-weight="bold">EXPORTS TO OTHER PLANETS</text>
  <text x="30" y="430" fill="#C0C0C8" font-family="monospace" font-size="9">Steel Plates · Alloy Rods · Crystal Shards</text>
  <text x="30" y="442" fill="#4A4A50" font-family="monospace" font-size="8">Primary construction supply — never idle</text>

  <!-- ═══════════════ PLANET B COLUMN ═══════════════ -->
  <!-- Header -->
  <rect x="284" y="62" width="252" height="52" rx="4" fill="#0A0A20"/>
  <!-- Planet B icon -->
  <ellipse cx="314" cy="88" rx="22" ry="22" fill="#0A0A20" stroke="#D4A845" stroke-width="2"/>
  <path d="M293,82 Q304,72 314,76 Q324,80 329,88" fill="none" stroke="#404080" stroke-width="1.5" opacity="0.7"/>
  <path d="M291,93 Q303,83 314,87 Q325,91 330,99" fill="none" stroke="#404080" stroke-width="1" opacity="0.5"/>
  <text x="343" y="80" fill="#D4A845" font-family="monospace" font-size="12" font-weight="bold">PLANET B</text>
  <text x="343" y="96" fill="#4A4A50" font-family="monospace" font-size="9">Vortex Drift  ·  First Destination</text>
  <text x="343" y="108" fill="#D4A845" font-family="monospace" font-size="9">■ PHASE 2 — FIRST CROSSING</text>

  <!-- Surface conditions -->
  <rect x="284" y="118" width="252" height="64" rx="3" fill="#0E0E1A" stroke="#404048" stroke-width="1"/>
  <text x="294" y="133" fill="#4A4A50" font-family="monospace" font-size="8">SURFACE CONDITIONS</text>
  <text x="294" y="148" fill="#C0C0C8" font-family="monospace" font-size="9">• Atm. interference: -40% survey range</text>
  <text x="294" y="162" fill="#C0C0C8" font-family="monospace" font-size="9">• Deeper deposits, longer-lived (30-80h)</text>
  <text x="294" y="175" fill="#D4A845" font-family="monospace" font-size="9">• High-PE gas (20-35% more fuel/unit)</text>

  <text x="294" y="202" fill="#4A4A50" font-family="monospace" font-size="8">RESOURCES</text>
  <line x1="284" y1="207" x2="536" y2="207" stroke="#404048" stroke-width="0.5"/>

  <!-- Shards -->
  <circle cx="296" cy="222" r="5" fill="#7CB87C"/>
  <polygon points="306,214 312,212 316,222 312,228 306,226" fill="#0A2A2A" stroke="#7CB87C" stroke-width="1"/>
  <text x="320" y="224" fill="#7CB87C" font-family="monospace" font-size="9" font-weight="bold">SHARDS ★</text>
  <text x="294" y="238" fill="#4A4A50" font-family="monospace" font-size="8">CR 600-900 · CD 550-850 · Mineral Harv.</text>
  <text x="294" y="250" fill="#4A4A50" font-family="monospace" font-size="8">→ Crystal Lattices · Energy Cells</text>

  <line x1="289" y1="258" x2="531" y2="258" stroke="#404048" stroke-width="0.5" stroke-dasharray="2,3"/>

  <!-- Aethite -->
  <circle cx="296" cy="272" r="5" fill="#D4A845"/>
  <ellipse cx="306" cy="270" rx="6" ry="9" fill="#1A1400" stroke="#D4A845" stroke-width="1"/>
  <text x="320" y="274" fill="#D4A845" font-family="monospace" font-size="9" font-weight="bold">AETHITE</text>
  <text x="294" y="288" fill="#4A4A50" font-family="monospace" font-size="8">High CD, OQ · Crystal Harv.  (deep)</text>
  <text x="294" y="300" fill="#4A4A50" font-family="monospace" font-size="8">→ Research materials · Quantum Array</text>

  <line x1="289" y1="308" x2="531" y2="308" stroke="#404048" stroke-width="0.5" stroke-dasharray="2,3"/>

  <!-- Voidstone -->
  <circle cx="296" cy="322" r="5" fill="#C090C8"/>
  <circle cx="306" cy="322" r="7" fill="#0A0020" stroke="#C090C8" stroke-width="1"/>
  <circle cx="306" cy="322" r="3" fill="#C090C8" opacity="0.5"/>
  <text x="320" y="324" fill="#C090C8" font-family="monospace" font-size="9" font-weight="bold">VOIDSTONE ★</text>
  <text x="294" y="338" fill="#4A4A50" font-family="monospace" font-size="8">Deep caves only · CAVE DRILL required</text>
  <text x="294" y="350" fill="#C090C8" font-family="monospace" font-size="8">→ Void Cores  (warp · avionics)</text>

  <line x1="289" y1="358" x2="531" y2="358" stroke="#404048" stroke-width="0.5" stroke-dasharray="2,3"/>

  <!-- Bio-Resin -->
  <circle cx="296" cy="372" r="5" fill="#60C8D4"/>
  <ellipse cx="306" cy="370" rx="4" ry="7" fill="#061A14" stroke="#60C8D4" stroke-width="1"/>
  <ellipse cx="306" cy="366" rx="6" ry="3" fill="#061A14" stroke="#60C8D4" stroke-width="1"/>
  <text x="320" y="374" fill="#60C8D4" font-family="monospace" font-size="9" font-weight="bold">BIO-RESIN ★★</text>
  <text x="294" y="388" fill="#4A4A50" font-family="monospace" font-size="8">Living flora · HARVEST FLORA drone task</text>
  <text x="294" y="400" fill="#60C8D4" font-family="monospace" font-size="8">→ Insulation · Bio-circuits (no substitute)</text>

  <!-- Harvester note -->
  <rect x="284" y="414" width="252" height="32" rx="3" fill="#0A1A0A" stroke="#404048" stroke-width="1"/>
  <text x="294" y="429" fill="#4A4A50" font-family="monospace" font-size="8">HARVESTERS:  Mineral · Crystal · Cave Drill</text>
  <text x="294" y="441" fill="#D4A845" font-family="monospace" font-size="8">FLORA DRONE: HARVEST FLORA behavior</text>

  <!-- Export box -->
  <rect x="284" y="450" width="252" height="44" rx="3" fill="#1A1400" stroke="#D4A845" stroke-width="1"/>
  <text x="294" y="466" fill="#D4A845" font-family="monospace" font-size="9" font-weight="bold">EXPORTS TO OTHER PLANETS</text>
  <text x="294" y="480" fill="#C0C0C8" font-family="monospace" font-size="9">Void Cores · Crystal Lattices · High-PE Gas</text>
  <text x="294" y="492" fill="#60C8D4" font-family="monospace" font-size="8">Bio-Resin ★ — only source in galaxy</text>

  <!-- ═══════════════ PLANET C COLUMN ═══════════════ -->
  <!-- Header -->
  <rect x="544" y="62" width="242" height="52" rx="4" fill="#100808"/>
  <!-- Planet C icon: shattered ring -->
  <ellipse cx="574" cy="88" rx="22" ry="22" fill="#100808" stroke="#C0C0C8" stroke-width="1.5" stroke-dasharray="5,3"/>
  <line x1="560" y1="74" x2="588" y2="102" stroke="#C0C0C8" stroke-width="0.5" opacity="0.4"/>
  <line x1="562" y1="102" x2="586" y2="74" stroke="#C0C0C8" stroke-width="0.5" opacity="0.4"/>
  <circle cx="574" cy="88" rx="12" ry="12" r="12" fill="#0A0505"/>
  <text x="604" y="80" fill="#C0C0C8" font-family="monospace" font-size="12" font-weight="bold">PLANET C</text>
  <text x="604" y="96" fill="#4A4A50" font-family="monospace" font-size="9">Shattered Ring  ·  Endgame</text>
  <text x="604" y="108" fill="#C0C0C8" font-family="monospace" font-size="9">■ PHASE 4-5 — FINAL FRONTIER</text>

  <!-- Surface conditions -->
  <rect x="544" y="118" width="242" height="64" rx="3" fill="#0E0E1A" stroke="#404048" stroke-width="1"/>
  <text x="554" y="133" fill="#4A4A50" font-family="monospace" font-size="8">SURFACE CONDITIONS</text>
  <text x="554" y="148" fill="#C0C0C8" font-family="monospace" font-size="9">• Unstable: deposits SHIFT every 2-4h</text>
  <text x="554" y="162" fill="#D44040" font-family="monospace" font-size="9">• Resurveying mandatory — maps go stale</text>
  <text x="554" y="175" fill="#D4A845" font-family="monospace" font-size="9">• Shuttle required to land · Radiation high</text>

  <text x="554" y="202" fill="#4A4A50" font-family="monospace" font-size="8">RESOURCES</text>
  <line x1="544" y1="207" x2="780" y2="207" stroke="#404048" stroke-width="0.5"/>

  <!-- Void-Touched Ore -->
  <circle cx="556" cy="222" r="5" fill="#7CB87C"/>
  <rect x="564" y="214" width="10" height="14" rx="2" fill="#1A0A1A" stroke="#C090C8" stroke-width="1"/>
  <line x1="564" y1="221" x2="574" y2="221" stroke="#7CB87C" stroke-width="0.8"/>
  <text x="580" y="224" fill="#7CB87C" font-family="monospace" font-size="9" font-weight="bold">VOID-TOUCHED ORE</text>
  <text x="554" y="238" fill="#4A4A50" font-family="monospace" font-size="8">OQ variance 150-950 · Unpredictable</text>
  <text x="554" y="250" fill="#C090C8" font-family="monospace" font-size="8">Can't predict quality until refined</text>

  <line x1="549" y1="258" x2="775" y2="258" stroke="#404048" stroke-width="0.5" stroke-dasharray="2,3"/>

  <!-- Resonance Crystals -->
  <circle cx="556" cy="272" r="5" fill="#60C8D4"/>
  <!-- Crystal cluster icon -->
  <polygon points="563,282 566,262 570,280 573,266 577,280 580,264 583,282" fill="#061A1A" stroke="#60C8D4" stroke-width="1"/>
  <text x="590" y="274" fill="#60C8D4" font-family="monospace" font-size="9" font-weight="bold">RESONANCE CRYSTALS ★★</text>
  <text x="554" y="288" fill="#4A4A50" font-family="monospace" font-size="8">CD 780-980 · SR 700-950 · NOT mineable</text>
  <text x="554" y="300" fill="#60C8D4" font-family="monospace" font-size="8">Resonance Charges → crack → harvest</text>
  <text x="554" y="312" fill="#D44040" font-family="monospace" font-size="8">3-5 cracks/formation · FINITE SUPPLY</text>

  <line x1="549" y1="320" x2="775" y2="320" stroke="#404048" stroke-width="0.5" stroke-dasharray="2,3"/>

  <!-- Dark Gas -->
  <circle cx="556" cy="334" r="5" fill="#60C8D4"/>
  <!-- Geyser icon -->
  <rect x="562" y="338" width="8" height="12" rx="1" fill="#0A0818" stroke="#60C8D4" stroke-width="1"/>
  <path d="M566,338 Q560,330 564,324 Q568,318 572,324 Q576,330 570,338" fill="#0A0818" stroke="#60C8D4" stroke-width="1"/>
  <text x="580" y="336" fill="#60C8D4" font-family="monospace" font-size="9" font-weight="bold">DARK GAS ★★</text>
  <text x="554" y="350" fill="#4A4A50" font-family="monospace" font-size="8">Geyser vents · GAS TRAP required</text>
  <text x="554" y="362" fill="#60C8D4" font-family="monospace" font-size="8">Fuels elite harvesters + Warp Drive</text>
  <text x="554" y="374" fill="#4A4A50" font-family="monospace" font-size="8">No standard Gas Collectors work here</text>

  <!-- Harvester note -->
  <rect x="544" y="388" width="242" height="32" rx="3" fill="#0A0A1A" stroke="#404048" stroke-width="1"/>
  <text x="554" y="403" fill="#4A4A50" font-family="monospace" font-size="8">HARVESTERS:  Mineral · Crystal · Gas Trap</text>
  <text x="554" y="415" fill="#C090C8" font-family="monospace" font-size="8">CRACKING: Resonance Charge method</text>

  <!-- Export box -->
  <rect x="544" y="424" width="242" height="70" rx="3" fill="#100808" stroke="#C0C0C8" stroke-width="1"/>
  <text x="554" y="440" fill="#C0C0C8" font-family="monospace" font-size="9" font-weight="bold">EXPORTS TO OTHER PLANETS</text>
  <text x="554" y="454" fill="#C0C0C8" font-family="monospace" font-size="9">Resonance Shards → Warp Gates</text>
  <text x="554" y="468" fill="#C0C0C8" font-family="monospace" font-size="9">Dark Gas → Fleet fuel supply</text>
  <text x="554" y="482" fill="#60C8D4" font-family="monospace" font-size="8">Both ★★ resources planet-exclusive</text>
  <text x="554" y="494" fill="#4A4A50" font-family="monospace" font-size="8">Best crafted items require resources here</text>

  <!-- ═══ BOTTOM ROW: Cross-planet dependency bar ═══ -->
  <rect x="20" y="502" width="760" height="60" rx="4" fill="#0E0E1A" stroke="#404048" stroke-width="1"/>
  <text x="400" y="518" fill="#D4A845" font-family="monospace" font-size="9" text-anchor="middle" font-weight="bold">CROSS-PLANET CRAFTING DEPENDENCIES</text>
  <line x1="25" y1="522" x2="775" y2="522" stroke="#404048" stroke-width="0.5"/>

  <text x="30" y="537" fill="#4A4A50" font-family="monospace" font-size="8">Avionics Core:</text>
  <text x="130" y="537" fill="#7CB87C" font-family="monospace" font-size="8">A1 Alloy</text>
  <text x="180" y="537" fill="#4A4A50" font-family="monospace" font-size="8">+</text>
  <text x="190" y="537" fill="#D4A845" font-family="monospace" font-size="8">B Void Cores</text>
  <text x="260" y="537" fill="#4A4A50" font-family="monospace" font-size="8">  |  Warp Gate:</text>
  <text x="335" y="537" fill="#7CB87C" font-family="monospace" font-size="8">A1 Steel</text>
  <text x="375" y="537" fill="#4A4A50" font-family="monospace" font-size="8">+</text>
  <text x="383" y="537" fill="#D4A845" font-family="monospace" font-size="8">B Void Cores</text>
  <text x="460" y="537" fill="#4A4A50" font-family="monospace" font-size="8">+</text>
  <text x="468" y="537" fill="#60C8D4" font-family="monospace" font-size="8">C Resonance</text>
  <text x="555" y="537" fill="#4A4A50" font-family="monospace" font-size="8">  |  Bio-Circuit:</text>
  <text x="638" y="537" fill="#7CB87C" font-family="monospace" font-size="8">A1 Alloy</text>
  <text x="677" y="537" fill="#4A4A50" font-family="monospace" font-size="8">+</text>
  <text x="685" y="537" fill="#60C8D4" font-family="monospace" font-size="8">B Bio-Resin</text>

  <text x="30" y="553" fill="#4A4A50" font-family="monospace" font-size="8">Elite Drone T5:</text>
  <text x="130" y="553" fill="#7CB87C" font-family="monospace" font-size="8">A1 Steel</text>
  <text x="172" y="553" fill="#4A4A50" font-family="monospace" font-size="8">+</text>
  <text x="180" y="553" fill="#D4A845" font-family="monospace" font-size="8">B Crystal Latt.</text>
  <text x="272" y="553" fill="#4A4A50" font-family="monospace" font-size="8">+</text>
  <text x="280" y="553" fill="#C090C8" font-family="monospace" font-size="8">C Void-Touched(hi-OQ)</text>
  <text x="430" y="553" fill="#4A4A50" font-family="monospace" font-size="8">  |  Dark Fuel Cell:</text>
  <text x="535" y="553" fill="#D4A845" font-family="monospace" font-size="8">B High-PE Gas</text>
  <text x="620" y="553" fill="#4A4A50" font-family="monospace" font-size="8">+</text>
  <text x="628" y="553" fill="#60C8D4" font-family="monospace" font-size="8">C Dark Gas</text>

  <text x="400" y="572" fill="#4A4A50" font-family="monospace" font-size="9" text-anchor="middle">★★ = planet-exclusive, no substitute   ·   Best items always require 2+ planets   ·   No planet is self-sufficient</text>
</svg>
