<svg xmlns="http://www.w3.org/2000/svg" width="960" height="600" viewBox="0 0 960 600">
  <defs>
    <style>text { font-family: monospace; }</style>
  </defs>

  <!-- Background -->
  <rect width="960" height="600" fill="#0D1B3E"/>
  <rect x="1" y="1" width="958" height="598" fill="none" stroke="#1E3060" stroke-width="1"/>

  <!-- Title bar -->
  <rect x="0" y="0" width="960" height="38" fill="#091428"/>
  <text x="20" y="24" fill="#E8C87A" font-family="monospace" font-size="13" font-weight="bold">PRODUCTION DASHBOARD</text>
  <text x="800" y="24" fill="#4A6A8A" font-family="monospace" font-size="9">[P] TOGGLE  ·  [ESC] CLOSE</text>
  <line x1="0" y1="38" x2="960" y2="38" stroke="#2A4080" stroke-width="1"/>

  <!-- Planet tab bar -->
  <rect x="20" y="46" width="100" height="24" rx="4" fill="#1A2A4A" stroke="#5A90C0" stroke-width="1.5"/>
  <text x="70" y="62" fill="#5A90C0" font-family="monospace" font-size="10" text-anchor="middle" font-weight="bold">A1</text>
  <rect x="128" y="46" width="120" height="24" rx="4" fill="#0D1628" stroke="#2A4060" stroke-width="1"/>
  <text x="188" y="62" fill="#4A6A8A" font-family="monospace" font-size="10" text-anchor="middle">PLANET B</text>
  <rect x="256" y="46" width="120" height="24" rx="4" fill="#0D1628" stroke="#2A4060" stroke-width="1"/>
  <text x="316" y="62" fill="#4A6A8A" font-family="monospace" font-size="10" text-anchor="middle">PLANET C</text>

  <!-- Column headers -->
  <rect x="20" y="78" width="610" height="20" rx="2" fill="#091428"/>
  <text x="30" y="92" fill="#4A6A8A" font-family="monospace" font-size="9">RESOURCE</text>
  <text x="200" y="92" fill="#4A6A8A" font-family="monospace" font-size="9">PRODUCTION /min</text>
  <text x="330" y="92" fill="#4A6A8A" font-family="monospace" font-size="9">CONSUMPTION /min</text>
  <text x="490" y="92" fill="#4A6A8A" font-family="monospace" font-size="9">NET DELTA</text>
  <text x="560" y="92" fill="#4A6A8A" font-family="monospace" font-size="9">DAYS LEFT</text>
  <line x1="20" y1="98" x2="630" y2="98" stroke="#2A4060" stroke-width="1"/>

  <!-- ── ROW 1: Steel Bars (SURPLUS) ── -->
  <rect x="20" y="100" width="610" height="34" rx="2" fill="#0D1628"/>
  <!-- Resource icon -->
  <rect x="28" y="108" width="12" height="14" rx="2" fill="#B06030" stroke="#D08050" stroke-width="1"/>
  <text x="48" y="120" fill="#C8C8D8" font-family="monospace" font-size="10">Steel Bars</text>
  <!-- Production bar -->
  <rect x="200" y="109" width="110" height="14" rx="2" fill="#0A1020" stroke="#2A4060" stroke-width="0.5"/>
  <rect x="201" y="110" width="88" height="12" rx="1.5" fill="#3A6A3A" opacity="0.8"/>
  <text x="318" y="121" fill="#C8C8D8" font-family="monospace" font-size="9">+124</text>
  <!-- Consumption bar -->
  <rect x="330" y="109" width="140" height="14" rx="2" fill="#0A1020" stroke="#2A4060" stroke-width="0.5"/>
  <rect x="331" y="110" width="70" height="12" rx="1.5" fill="#3A5A7A" opacity="0.7"/>
  <text x="478" y="121" fill="#7ABCD4" font-family="monospace" font-size="9">−98</text>
  <!-- Breakdown: factories 72, export 26 -->
  <text x="334" y="122" fill="#2A3A5A" font-family="monospace" font-size="7">fac:72  exp:26</text>
  <!-- Delta -->
  <rect x="490" y="109" width="60" height="14" rx="2" fill="#0A1A0A" stroke="#3A6A3A" stroke-width="1"/>
  <text x="520" y="121" fill="#7ABD7A" font-family="monospace" font-size="10" text-anchor="middle" font-weight="bold">+26</text>
  <!-- Days left: surplus, no days -->
  <text x="570" y="121" fill="#2A5A2A" font-family="monospace" font-size="9">—</text>
  <line x1="20" y1="134" x2="630" y2="134" stroke="#1A2A40" stroke-width="0.5"/>

  <!-- ── ROW 2: Steel Plates (SURPLUS) ── -->
  <rect x="20" y="134" width="610" height="34" rx="2" fill="#0A1428"/>
  <rect x="28" y="142" width="12" height="14" rx="2" fill="#B06030" stroke="#D08050" stroke-width="1"/>
  <text x="48" y="154" fill="#C8C8D8" font-family="monospace" font-size="10">Steel Plates</text>
  <rect x="200" y="143" width="110" height="14" rx="2" fill="#0A1020" stroke="#2A4060" stroke-width="0.5"/>
  <rect x="201" y="144" width="72" height="12" rx="1.5" fill="#3A6A3A" opacity="0.8"/>
  <text x="318" y="155" fill="#C8C8D8" font-family="monospace" font-size="9">+92</text>
  <rect x="330" y="143" width="140" height="14" rx="2" fill="#0A1020" stroke="#2A4060" stroke-width="0.5"/>
  <rect x="331" y="144" width="50" height="12" rx="1.5" fill="#3A5A7A" opacity="0.7"/>
  <text x="478" y="155" fill="#7ABCD4" font-family="monospace" font-size="9">−64</text>
  <text x="334" y="156" fill="#2A3A5A" font-family="monospace" font-size="7">fac:40  exp:24</text>
  <rect x="490" y="143" width="60" height="14" rx="2" fill="#0A1A0A" stroke="#3A6A3A" stroke-width="1"/>
  <text x="520" y="155" fill="#7ABD7A" font-family="monospace" font-size="10" text-anchor="middle" font-weight="bold">+28</text>
  <text x="570" y="155" fill="#2A5A2A" font-family="monospace" font-size="9">—</text>
  <line x1="20" y1="168" x2="630" y2="168" stroke="#1A2A40" stroke-width="0.5"/>

  <!-- ── ROW 3: Alloy Rods (SURPLUS small) ── -->
  <rect x="20" y="168" width="610" height="34" rx="2" fill="#0D1628"/>
  <rect x="28" y="176" width="12" height="14" rx="2" fill="#8090B0" stroke="#A0B0D0" stroke-width="1"/>
  <text x="48" y="188" fill="#C8C8D8" font-family="monospace" font-size="10">Alloy Rods</text>
  <rect x="200" y="177" width="110" height="14" rx="2" fill="#0A1020" stroke="#2A4060" stroke-width="0.5"/>
  <rect x="201" y="178" width="38" height="12" rx="1.5" fill="#3A6A3A" opacity="0.8"/>
  <text x="318" y="189" fill="#C8C8D8" font-family="monospace" font-size="9">+48</text>
  <rect x="330" y="177" width="140" height="14" rx="2" fill="#0A1020" stroke="#2A4060" stroke-width="0.5"/>
  <rect x="331" y="178" width="34" height="12" rx="1.5" fill="#3A5A7A" opacity="0.7"/>
  <text x="478" y="189" fill="#7ABCD4" font-family="monospace" font-size="9">−43</text>
  <text x="334" y="190" fill="#2A3A5A" font-family="monospace" font-size="7">fac:43  exp:0</text>
  <rect x="490" y="177" width="60" height="14" rx="2" fill="#0A1A0A" stroke="#3A6A3A" stroke-width="1"/>
  <text x="520" y="189" fill="#7ABD7A" font-family="monospace" font-size="10" text-anchor="middle" font-weight="bold">+5</text>
  <text x="570" y="189" fill="#2A5A2A" font-family="monospace" font-size="9">—</text>
  <line x1="20" y1="202" x2="630" y2="202" stroke="#1A2A40" stroke-width="0.5"/>

  <!-- ── ROW 4: Compressed Gas (SURPLUS) ── -->
  <rect x="20" y="202" width="610" height="34" rx="2" fill="#0A1428"/>
  <ellipse cx="35" cy="219" rx="7" ry="8" fill="#A0B820" stroke="#C0D840" stroke-width="1"/>
  <text x="48" y="222" fill="#C8C8D8" font-family="monospace" font-size="10">Compressed Gas</text>
  <rect x="200" y="211" width="110" height="14" rx="2" fill="#0A1020" stroke="#2A4060" stroke-width="0.5"/>
  <rect x="201" y="212" width="104" height="12" rx="1.5" fill="#3A6A3A" opacity="0.8"/>
  <text x="318" y="223" fill="#C8C8D8" font-family="monospace" font-size="9">+540</text>
  <rect x="330" y="211" width="140" height="14" rx="2" fill="#0A1020" stroke="#2A4060" stroke-width="0.5"/>
  <rect x="331" y="212" width="54" height="12" rx="1.5" fill="#3A5A7A" opacity="0.7"/>
  <text x="478" y="223" fill="#7ABCD4" font-family="monospace" font-size="9">−290</text>
  <text x="334" y="224" fill="#2A3A5A" font-family="monospace" font-size="7">crew:130  harv:160</text>
  <rect x="490" y="211" width="60" height="14" rx="2" fill="#0A1A0A" stroke="#3A6A3A" stroke-width="1"/>
  <text x="520" y="223" fill="#7ABD7A" font-family="monospace" font-size="10" text-anchor="middle" font-weight="bold">+250</text>
  <text x="570" y="223" fill="#2A5A2A" font-family="monospace" font-size="9">—</text>
  <line x1="20" y1="236" x2="630" y2="236" stroke="#1A2A40" stroke-width="0.5"/>

  <!-- ── ROW 5: Processed Rations (DEFICIT) ── -->
  <rect x="20" y="236" width="610" height="36" rx="2" fill="#1A0A0A"/>
  <rect x="28" y="245" width="12" height="14" rx="2" fill="#80A040" stroke="#A0C060" stroke-width="1"/>
  <text x="48" y="257" fill="#E08888" font-family="monospace" font-size="10" font-weight="bold">Processed Rations</text>
  <rect x="200" y="245" width="110" height="14" rx="2" fill="#0A1020" stroke="#2A4060" stroke-width="0.5"/>
  <rect x="201" y="246" width="54" height="12" rx="1.5" fill="#4A7A3A" opacity="0.7"/>
  <text x="318" y="257" fill="#C8C8D8" font-family="monospace" font-size="9">+310</text>
  <rect x="330" y="245" width="140" height="14" rx="2" fill="#0A1020" stroke="#2A4060" stroke-width="0.5"/>
  <rect x="331" y="246" width="108" height="12" rx="1.5" fill="#7A2A2A" opacity="0.8"/>
  <text x="478" y="257" fill="#E08888" font-family="monospace" font-size="9">−380</text>
  <text x="334" y="258" fill="#5A2A2A" font-family="monospace" font-size="7">crew:380  fac:0</text>
  <rect x="490" y="245" width="60" height="14" rx="2" fill="#1A0808" stroke="#A04040" stroke-width="1.5"/>
  <text x="520" y="257" fill="#E06060" font-family="monospace" font-size="10" text-anchor="middle" font-weight="bold">−70</text>
  <!-- Days countdown -->
  <rect x="554" y="245" width="72" height="14" rx="2" fill="#2A0808" stroke="#A04040" stroke-width="1"/>
  <text x="590" y="257" fill="#E06060" font-family="monospace" font-size="9" text-anchor="middle">0.8 days</text>
  <line x1="20" y1="272" x2="630" y2="272" stroke="#3A1A1A" stroke-width="0.5"/>

  <!-- ── ROW 6: Power Cells (DEFICIT) ── -->
  <rect x="20" y="272" width="610" height="36" rx="2" fill="#1A0A0A"/>
  <rect x="28" y="281" width="12" height="14" rx="2" fill="#20A0C0" stroke="#40C0E0" stroke-width="1"/>
  <text x="48" y="293" fill="#E08888" font-family="monospace" font-size="10" font-weight="bold">Power Cells</text>
  <rect x="200" y="281" width="110" height="14" rx="2" fill="#0A1020" stroke="#2A4060" stroke-width="0.5"/>
  <rect x="201" y="282" width="44" height="12" rx="1.5" fill="#4A7A3A" opacity="0.7"/>
  <text x="318" y="293" fill="#C8C8D8" font-family="monospace" font-size="9">+88</text>
  <rect x="330" y="281" width="140" height="14" rx="2" fill="#0A1020" stroke="#2A4060" stroke-width="0.5"/>
  <rect x="331" y="282" width="88" height="12" rx="1.5" fill="#7A2A2A" opacity="0.8"/>
  <text x="478" y="293" fill="#E08888" font-family="monospace" font-size="9">−112</text>
  <text x="334" y="294" fill="#5A2A2A" font-family="monospace" font-size="7">fac:21  crew:91</text>
  <rect x="490" y="281" width="60" height="14" rx="2" fill="#1A0808" stroke="#A04040" stroke-width="1.5"/>
  <text x="520" y="293" fill="#E06060" font-family="monospace" font-size="10" text-anchor="middle" font-weight="bold">−24</text>
  <rect x="554" y="281" width="72" height="14" rx="2" fill="#2A0808" stroke="#A04040" stroke-width="1"/>
  <text x="590" y="293" fill="#E06060" font-family="monospace" font-size="9" text-anchor="middle">1.4 days</text>
  <line x1="20" y1="308" x2="630" y2="308" stroke="#3A1A1A" stroke-width="0.5"/>

  <!-- ── ROW 7: Crystal Lattice (SURPLUS) ── -->
  <rect x="20" y="308" width="610" height="34" rx="2" fill="#0D1628"/>
  <rect x="28" y="316" width="12" height="14" rx="2" fill="#20A0C0" stroke="#40D0D0" stroke-width="1"/>
  <text x="48" y="328" fill="#C8C8D8" font-family="monospace" font-size="10">Crystal Lattice</text>
  <rect x="200" y="317" width="110" height="14" rx="2" fill="#0A1020" stroke="#2A4060" stroke-width="0.5"/>
  <rect x="201" y="318" width="22" height="12" rx="1.5" fill="#3A6A3A" opacity="0.8"/>
  <text x="318" y="329" fill="#C8C8D8" font-family="monospace" font-size="9">+28</text>
  <rect x="330" y="317" width="140" height="14" rx="2" fill="#0A1020" stroke="#2A4060" stroke-width="0.5"/>
  <rect x="331" y="318" width="18" height="12" rx="1.5" fill="#3A5A7A" opacity="0.7"/>
  <text x="478" y="329" fill="#7ABCD4" font-family="monospace" font-size="9">−22</text>
  <text x="334" y="330" fill="#2A3A5A" font-family="monospace" font-size="7">fac:22  crew:0</text>
  <rect x="490" y="317" width="60" height="14" rx="2" fill="#0A1A0A" stroke="#3A6A3A" stroke-width="1"/>
  <text x="520" y="329" fill="#7ABD7A" font-family="monospace" font-size="10" text-anchor="middle" font-weight="bold">+6</text>
  <text x="570" y="329" fill="#2A5A2A" font-family="monospace" font-size="9">—</text>
  <line x1="20" y1="342" x2="630" y2="342" stroke="#1A2A40" stroke-width="0.5"/>

  <!-- ── ROW 8: Bio-Circuit Boards (BARELY SURPLUS) ── -->
  <rect x="20" y="342" width="610" height="34" rx="2" fill="#0A1428"/>
  <rect x="28" y="350" width="12" height="14" rx="2" fill="#60C060" stroke="#80D080" stroke-width="1"/>
  <text x="48" y="362" fill="#C8C8D8" font-family="monospace" font-size="10">Bio-Circuit Boards</text>
  <rect x="200" y="351" width="110" height="14" rx="2" fill="#0A1020" stroke="#2A4060" stroke-width="0.5"/>
  <rect x="201" y="352" width="12" height="12" rx="1.5" fill="#3A6A3A" opacity="0.8"/>
  <text x="318" y="363" fill="#C8C8D8" font-family="monospace" font-size="9">+15</text>
  <rect x="330" y="351" width="140" height="14" rx="2" fill="#0A1020" stroke="#2A4060" stroke-width="0.5"/>
  <rect x="331" y="352" width="11" height="12" rx="1.5" fill="#3A5A7A" opacity="0.7"/>
  <text x="478" y="363" fill="#7ABCD4" font-family="monospace" font-size="9">−14</text>
  <text x="334" y="364" fill="#2A3A5A" font-family="monospace" font-size="7">crew:14  fac:0</text>
  <rect x="490" y="351" width="60" height="14" rx="2" fill="#0A1A0A" stroke="#3A6A3A" stroke-width="1"/>
  <text x="520" y="363" fill="#7ABD7A" font-family="monospace" font-size="10" text-anchor="middle" font-weight="bold">+1</text>
  <text x="570" y="363" fill="#6A9A6A" font-family="monospace" font-size="9">12 days</text>
  <line x1="20" y1="376" x2="630" y2="376" stroke="#1A2A40" stroke-width="0.5"/>

  <!-- DEFICIT ALERT BOX -->
  <rect x="20" y="384" width="610" height="40" rx="3" fill="#1A0808" stroke="#C04040" stroke-width="1.5"/>
  <text x="30" y="400" fill="#E06060" font-family="monospace" font-size="10" font-weight="bold">⚠ 2 RESOURCES IN DEFICIT — action needed</text>
  <text x="30" y="416" fill="#C08080" font-family="monospace" font-size="9">Processed Rations: add 1× Food Processor (+70 units/min needed)  ·  Power Cells: Fabricator output too low — check Crystal Lattice supply</text>

  <!-- ═══ RIGHT PANEL: DRILL-DOWN ═══ -->
  <rect x="648" y="78" width="300" height="346" rx="4" fill="#091428" stroke="#2A4060" stroke-width="1.5"/>
  <rect x="648" y="78" width="300" height="26" rx="4" fill="#0D1E3A"/>
  <text x="798" y="95" fill="#E8C87A" font-family="monospace" font-size="10" text-anchor="middle" font-weight="bold">DRILL-DOWN: Steel Bars</text>

  <text x="660" y="120" fill="#4A6A8A" font-family="monospace" font-size="9">PRODUCING BUILDINGS</text>
  <line x1="658" y1="125" x2="940" y2="125" stroke="#1A2A40" stroke-width="0.5"/>

  <!-- Source building rows -->
  <rect x="658" y="130" width="282" height="28" rx="2" fill="#0D1628"/>
  <rect x="662" y="136" width="8" height="8" rx="1" fill="#B06030" stroke="#D08050" stroke-width="1"/>
  <text x="678" y="146" fill="#C8C8D8" font-family="monospace" font-size="9">Ore Smelter #1</text>
  <rect x="820" y="135" width="60" height="12" rx="1" fill="#0A1020" stroke="#2A4060" stroke-width="0.5"/>
  <rect x="821" y="136" width="44" height="10" rx="0.5" fill="#3A6A3A" opacity="0.8"/>
  <text x="886" y="146" fill="#7ABD7A" font-family="monospace" font-size="9">+72/min</text>

  <rect x="658" y="162" width="282" height="28" rx="2" fill="#0A1428"/>
  <rect x="662" y="168" width="8" height="8" rx="1" fill="#B06030" stroke="#D08050" stroke-width="1"/>
  <text x="678" y="178" fill="#C8C8D8" font-family="monospace" font-size="9">Ore Smelter #2</text>
  <rect x="820" y="167" width="60" height="12" rx="1" fill="#0A1020" stroke="#2A4060" stroke-width="0.5"/>
  <rect x="821" y="168" width="36" height="10" rx="0.5" fill="#3A6A3A" opacity="0.8"/>
  <text x="886" y="178" fill="#7ABD7A" font-family="monospace" font-size="9">+52/min</text>
  <text x="678" y="190" fill="#4A4A5A" font-family="monospace" font-size="7">Running at 82% — low ore buffer</text>

  <line x1="658" y1="198" x2="940" y2="198" stroke="#1A2A40" stroke-width="0.5"/>

  <text x="660" y="215" fill="#4A6A8A" font-family="monospace" font-size="9">CONSUMING BUILDINGS</text>
  <line x1="658" y1="220" x2="940" y2="220" stroke="#1A2A40" stroke-width="0.5"/>

  <rect x="658" y="225" width="282" height="28" rx="2" fill="#0D1628"/>
  <rect x="662" y="231" width="8" height="8" rx="1" fill="#9070D0" stroke="#B090F0" stroke-width="1"/>
  <text x="678" y="241" fill="#C8C8D8" font-family="monospace" font-size="9">Fabricator — Drill Head</text>
  <text x="886" y="241" fill="#D46060" font-family="monospace" font-size="9">−36/min</text>

  <rect x="658" y="257" width="282" height="28" rx="2" fill="#0A1428"/>
  <rect x="662" y="263" width="8" height="8" rx="1" fill="#9070D0" stroke="#B090F0" stroke-width="1"/>
  <text x="678" y="273" fill="#C8C8D8" font-family="monospace" font-size="9">Fabricator — Hull Plating</text>
  <text x="886" y="273" fill="#D46060" font-family="monospace" font-size="9">−24/min</text>

  <rect x="658" y="289" width="282" height="28" rx="2" fill="#0D1628"/>
  <rect x="662" y="295" width="8" height="8" rx="1" fill="#1E3060" stroke="#2A4080" stroke-width="1"/>
  <text x="678" y="305" fill="#C8C8D8" font-family="monospace" font-size="9">Export (ISV Carver route)</text>
  <text x="886" y="305" fill="#7ABCD4" font-family="monospace" font-size="9">−26/min</text>

  <line x1="658" y1="325" x2="940" y2="325" stroke="#1A2A40" stroke-width="0.5"/>
  <rect x="658" y="330" width="282" height="26" rx="2" fill="#091428"/>
  <text x="678" y="346" fill="#7ABD7A" font-family="monospace" font-size="9">NET: +38/min  ·  Stockpile: 2,840 units</text>
  <text x="678" y="358" fill="#4A6A8A" font-family="monospace" font-size="8">At current rate: 28+ days of surplus</text>

  <!-- Highlight: click to select building on map -->
  <rect x="658" y="368" width="282" height="20" rx="2" fill="#0D1628" stroke="#2A4060" stroke-width="0.5"/>
  <text x="798" y="381" fill="#4A6A8A" font-family="monospace" font-size="8" text-anchor="middle">[ CLICK ROW TO HIGHLIGHT ON MAP ]</text>

  <!-- ═══ CREW STATUS MINI-PANEL ═══ -->
  <rect x="648" y="432" width="300" height="100" rx="4" fill="#091428" stroke="#2A4060" stroke-width="1.5"/>
  <text x="798" y="450" fill="#E8C87A" font-family="monospace" font-size="10" text-anchor="middle" font-weight="bold">CREW PRODUCTIVITY — A1</text>
  <line x1="658" y1="455" x2="940" y2="455" stroke="#2A4060" stroke-width="0.5"/>

  <!-- Tier rows -->
  <text x="660" y="470" fill="#4A6A8A" font-family="monospace" font-size="8">Colonists (42)</text>
  <rect x="740" y="460" width="100" height="12" rx="1" fill="#0A1020" stroke="#2A4060" stroke-width="0.5"/>
  <rect x="741" y="461" width="100" height="10" rx="0.5" fill="#3A7A3A" opacity="0.8"/>
  <text x="848" y="471" fill="#7ABD7A" font-family="monospace" font-size="8">100%  1.00×</text>

  <text x="660" y="488" fill="#4A6A8A" font-family="monospace" font-size="8">Technicians (108)</text>
  <rect x="740" y="478" width="100" height="12" rx="1" fill="#0A1020" stroke="#2A4060" stroke-width="0.5"/>
  <rect x="741" y="479" width="65" height="10" rx="0.5" fill="#7A5A1A" opacity="0.9"/>
  <text x="848" y="489" fill="#D4A845" font-family="monospace" font-size="8">65%  0.65×</text>
  <text x="660" y="502" fill="#8A4A4A" font-family="monospace" font-size="7">⚠ Power Cells supply low</text>

  <text x="660" y="516" fill="#4A6A8A" font-family="monospace" font-size="8">Engineers (0)</text>
  <rect x="740" y="506" width="100" height="12" rx="1" fill="#0A1020" stroke="#1A2A40" stroke-width="0.5"/>
  <text x="848" y="517" fill="#2A4A5A" font-family="monospace" font-size="8">unlocked Phase 3</text>

  <!-- Bottom summary bar -->
  <rect x="20" y="540" width="920" height="44" rx="4" fill="#091428" stroke="#2A4060" stroke-width="1"/>
  <text x="30" y="558" fill="#4A6A8A" font-family="monospace" font-size="9">PLANET SUMMARY (A1):</text>
  <text x="160" y="558" fill="#7ABD7A" font-family="monospace" font-size="9">6 resources surplus</text>
  <text x="310" y="558" fill="#E06060" font-family="monospace" font-size="9">2 resources deficit</text>
  <text x="460" y="558" fill="#D4A845" font-family="monospace" font-size="9">Crew productivity: 82% avg</text>
  <text x="640" y="558" fill="#4A6A8A" font-family="monospace" font-size="9">Industrial sites: 6/6 used</text>
  <text x="800" y="558" fill="#4A6A8A" font-family="monospace" font-size="9">Active drones: 14/20</text>
  <text x="30" y="576" fill="#4A6A8A" font-family="monospace" font-size="9">TOP ISSUE:</text>
  <text x="110" y="576" fill="#E06060" font-family="monospace" font-size="9">Processed Rations deficit will cause Colonist productivity drop in 0.8 days — add Food Processor</text>
</svg>
