<svg xmlns="http://www.w3.org/2000/svg" viewBox="0 0 960 540" width="960" height="540" font-family="'Courier New', monospace">
  <defs>
    <radialGradient id="bgGrad" cx="50%" cy="50%" r="70%">
      <stop offset="0%" stop-color="#0a0f20"/>
      <stop offset="100%" stop-color="#020408"/>
    </radialGradient>
    <linearGradient id="panelGrad" x1="0%" y1="0%" x2="0%" y2="100%">
      <stop offset="0%" stop-color="#0e1a2e"/>
      <stop offset="100%" stop-color="#080e1c"/>
    </linearGradient>
    <filter id="glowAmber">
      <feGaussianBlur stdDeviation="2" result="blur"/>
      <feFlood flood-color="#f5a623" flood-opacity="0.5" result="color"/>
      <feComposite in="color" in2="blur" operator="in" result="shadow"/>
      <feMerge><feMergeNode in="shadow"/><feMergeNode in="SourceGraphic"/></feMerge>
    </filter>
  </defs>

  <rect width="960" height="540" fill="url(#bgGrad)"/>
  <g opacity="0.2"><circle cx="200" cy="40" r="0.8" fill="#fff"/><circle cx="700" cy="80" r="0.6" fill="#fff"/></g>

  <rect x="15" y="35" width="930" height="490" rx="4" fill="url(#panelGrad)" stroke="#f5a623" stroke-width="1.5"/>
  <rect x="15" y="35" width="930" height="50" rx="4" fill="#0d1e38"/>
  <rect x="15" y="72" width="930" height="13" fill="#0d1e38"/>
  <line x1="15" y1="85" x2="945" y2="85" stroke="#f5a623" stroke-width="1.5" opacity="0.8"/>
  <text x="480" y="68" font-size="18" font-weight="bold" text-anchor="middle" fill="#ffd700" letter-spacing="4" filter="url(#glowAmber)">⬡  DRONE BAY</text>
  <text x="926" y="68" font-size="11" text-anchor="end" fill="#8a9ab0">[ D ] CLOSE</text>

  <!-- Stats bar -->
  <rect x="30" y="92" width="900" height="38" rx="2" fill="#0a1428" stroke="#2a3a50" stroke-width="0.5"/>
  <g font-size="10">
    <text x="50" y="106" fill="#8a9ab0">DRONES ACTIVE</text>
    <text x="50" y="121" font-size="14" font-weight="bold" fill="#4a9fd4">14 / 16</text>
    <line x1="160" y1="97" x2="160" y2="125" stroke="#2a3a50" stroke-width="0.5"/>
    <text x="174" y="106" fill="#8a9ab0">CARGO</text>
    <text x="174" y="121" font-size="14" font-weight="bold" fill="#4caf7d">8</text>
    <line x1="240" y1="97" x2="240" y2="125" stroke="#2a3a50" stroke-width="0.5"/>
    <text x="254" y="106" fill="#8a9ab0">SCOUT</text>
    <text x="254" y="121" font-size="14" font-weight="bold" fill="#f5a623">4</text>
    <line x1="320" y1="97" x2="320" y2="125" stroke="#2a3a50" stroke-width="0.5"/>
    <text x="334" y="106" fill="#8a9ab0">REPAIR</text>
    <text x="334" y="121" font-size="14" font-weight="bold" fill="#c070e0">2</text>
    <line x1="400" y1="97" x2="400" y2="125" stroke="#2a3a50" stroke-width="0.5"/>
    <text x="414" y="106" fill="#8a9ab0">IDLE</text>
    <text x="414" y="121" font-size="14" font-weight="bold" fill="#6a7a90">2</text>
    <line x1="474" y1="97" x2="474" y2="125" stroke="#2a3a50" stroke-width="0.5"/>
    <text x="488" y="106" fill="#8a9ab0">FUEL USAGE /hr</text>
    <text x="488" y="121" font-size="14" font-weight="bold" fill="#e8d0a0">48 FC</text>
    <line x1="620" y1="97" x2="620" y2="125" stroke="#2a3a50" stroke-width="0.5"/>
    <text x="634" y="106" fill="#8a9ab0">ORE HAULED TODAY</text>
    <text x="634" y="121" font-size="14" font-weight="bold" fill="#ffd700">2,840 units</text>
  </g>

  <!-- Column headers -->
  <rect x="30" y="136" width="900" height="22" fill="#0a1428"/>
  <line x1="30" y1="158" x2="930" y2="158" stroke="#2a3a50" stroke-width="0.5"/>
  <g font-size="9" fill="#6a7a90" letter-spacing="1">
    <text x="44" y="152">DRONE</text>
    <text x="160" y="152">TYPE</text>
    <text x="250" y="152">STATUS</text>
    <text x="360" y="152">TASK</text>
    <text x="540" y="152">CARRY</text>
    <text x="640" y="152">BATTERY</text>
    <text x="740" y="152">TRIPS</text>
    <text x="820" y="152">ACTIONS</text>
  </g>

  <!-- Drone rows -->
  <g>
    <!-- Cargo Drone 1 -->
    <rect x="30" y="158" width="900" height="42" fill="#0a1020"/>
    <line x1="30" y1="200" x2="930" y2="200" stroke="#1a2030" stroke-width="0.5"/>
    <text x="44" y="176" font-size="11" fill="#e8d0a0">CARGO-01</text>
    <text x="44" y="190" font-size="8" fill="#4a6080">s/n 0041</text>
    <text x="160" y="178" font-size="10" fill="#4a9fd4">⬡ CARGO</text>
    <rect x="250" y="164" width="70" height="16" rx="2" fill="#0a1830"/>
    <text x="285" y="175" font-size="9" text-anchor="middle" fill="#4a9fd4">▶ HAULING</text>
    <text x="360" y="172" font-size="9" fill="#e8d0a0">Harvester A → Storage A</text>
    <text x="360" y="185" font-size="8" fill="#4a6080">Krysite Ore × 48</text>
    <rect x="540" y="166" width="80" height="8" rx="2" fill="#0a1428"/>
    <rect x="540" y="166" width="64" height="8" rx="2" fill="#4a9fd4" opacity="0.7"/>
    <text x="540" y="187" font-size="8" fill="#4a9fd4">48 / 60</text>
    <rect x="640" y="166" width="80" height="8" rx="2" fill="#0a1428"/>
    <rect x="640" y="166" width="68" height="8" rx="2" fill="#4caf7d" opacity="0.7"/>
    <text x="640" y="187" font-size="8" fill="#4caf7d">85%</text>
    <text x="740" y="178" font-size="11" fill="#e8d0a0">124</text>
    <rect x="820" y="165" width="68" height="16" rx="2" fill="#0d1428" stroke="#3a4a60" stroke-width="1"/>
    <text x="854" y="177" font-size="9" text-anchor="middle" fill="#8a9ab0">REDIRECT</text>

    <!-- Cargo Drone 2 -->
    <rect x="30" y="200" width="900" height="42" fill="#0a1020" opacity="0.7"/>
    <line x1="30" y1="242" x2="930" y2="242" stroke="#1a2030" stroke-width="0.5"/>
    <text x="44" y="218" font-size="11" fill="#e8d0a0">CARGO-02</text>
    <text x="44" y="232" font-size="8" fill="#4a6080">s/n 0042</text>
    <text x="160" y="220" font-size="10" fill="#4a9fd4">⬡ CARGO</text>
    <rect x="250" y="206" width="70" height="16" rx="2" fill="#0a1830"/>
    <text x="285" y="217" font-size="9" text-anchor="middle" fill="#4a9fd4">▶ RETURNING</text>
    <text x="360" y="214" font-size="9" fill="#e8d0a0">Storage A → Harvester B</text>
    <text x="360" y="227" font-size="8" fill="#4a6080">Empty</text>
    <rect x="540" y="208" width="80" height="8" rx="2" fill="#0a1428"/>
    <text x="540" y="229" font-size="8" fill="#6a7a90">0 / 60</text>
    <rect x="640" y="208" width="80" height="8" rx="2" fill="#0a1428"/>
    <rect x="640" y="208" width="58" height="8" rx="2" fill="#4caf7d" opacity="0.7"/>
    <text x="640" y="229" font-size="8" fill="#4caf7d">72%</text>
    <text x="740" y="220" font-size="11" fill="#e8d0a0">97</text>
    <rect x="820" y="207" width="68" height="16" rx="2" fill="#0d1428" stroke="#3a4a60" stroke-width="1"/>
    <text x="854" y="219" font-size="9" text-anchor="middle" fill="#8a9ab0">REDIRECT</text>

    <!-- Scout Drone 1 -->
    <rect x="30" y="242" width="900" height="42" fill="#0d1010"/>
    <line x1="30" y1="284" x2="930" y2="284" stroke="#1a2030" stroke-width="0.5"/>
    <text x="44" y="260" font-size="11" fill="#e8d0a0">SCOUT-01</text>
    <text x="44" y="274" font-size="8" fill="#4a6080">s/n 0081</text>
    <text x="160" y="262" font-size="10" fill="#f5a623">◎ SCOUT</text>
    <rect x="250" y="248" width="70" height="16" rx="2" fill="#181200"/>
    <text x="285" y="259" font-size="9" text-anchor="middle" fill="#f5a623">⊕ SCANNING</text>
    <text x="360" y="256" font-size="9" fill="#e8d0a0">Sector NE-7 survey</text>
    <text x="360" y="269" font-size="8" fill="#f5a623">2 deposits found</text>
    <rect x="540" y="250" width="80" height="8" rx="2" fill="#0a1428"/>
    <text x="540" y="271" font-size="8" fill="#6a7a90">N/A</text>
    <rect x="640" y="250" width="80" height="8" rx="2" fill="#0a1428"/>
    <rect x="640" y="250" width="40" height="8" rx="2" fill="#f5a623" opacity="0.7"/>
    <text x="640" y="271" font-size="8" fill="#f5a623">50%</text>
    <text x="740" y="262" font-size="11" fill="#e8d0a0">38</text>
    <rect x="820" y="249" width="68" height="16" rx="2" fill="#0d1428" stroke="#3a4a60" stroke-width="1"/>
    <text x="854" y="261" font-size="9" text-anchor="middle" fill="#8a9ab0">RECALL</text>

    <!-- Repair Drone -->
    <rect x="30" y="284" width="900" height="42" fill="#100a18"/>
    <line x1="30" y1="326" x2="930" y2="326" stroke="#1a2030" stroke-width="0.5"/>
    <text x="44" y="302" font-size="11" fill="#e8d0a0">REPAIR-01</text>
    <text x="44" y="316" font-size="8" fill="#4a6080">s/n 0121</text>
    <text x="160" y="304" font-size="10" fill="#c070e0">⚒ REPAIR</text>
    <rect x="250" y="290" width="70" height="16" rx="2" fill="#1a0828"/>
    <text x="285" y="301" font-size="9" text-anchor="middle" fill="#c070e0">⚒ REPAIRING</text>
    <text x="360" y="298" font-size="9" fill="#e8d0a0">Harvester B (67%)</text>
    <text x="360" y="311" font-size="8" fill="#c070e0">ETA: 45s</text>
    <rect x="540" y="292" width="80" height="8" rx="2" fill="#0a1428"/>
    <text x="540" y="313" font-size="8" fill="#6a7a90">N/A</text>
    <rect x="640" y="292" width="80" height="8" rx="2" fill="#0a1428"/>
    <rect x="640" y="292" width="62" height="8" rx="2" fill="#c070e0" opacity="0.7"/>
    <text x="640" y="313" font-size="8" fill="#c070e0">78%</text>
    <text x="740" y="304" font-size="11" fill="#e8d0a0">12</text>
    <rect x="820" y="291" width="68" height="16" rx="2" fill="#0d1428" stroke="#3a4a60" stroke-width="1"/>
    <text x="854" y="303" font-size="9" text-anchor="middle" fill="#8a9ab0">REDIRECT</text>

    <!-- Idle Drone -->
    <rect x="30" y="326" width="900" height="42" fill="#0a1020" opacity="0.5"/>
    <line x1="30" y1="368" x2="930" y2="368" stroke="#1a2030" stroke-width="0.5"/>
    <text x="44" y="344" font-size="11" fill="#8a9ab0">CARGO-07</text>
    <text x="44" y="358" font-size="8" fill="#3a4a60">s/n 0047</text>
    <text x="160" y="346" font-size="10" fill="#4a5a70">⬡ CARGO</text>
    <rect x="250" y="332" width="46" height="16" rx="2" fill="#0e1010"/>
    <text x="273" y="343" font-size="9" text-anchor="middle" fill="#6a7a90">◌ IDLE</text>
    <text x="360" y="344" font-size="9" fill="#6a7a90">Awaiting assignment</text>
    <rect x="540" y="334" width="80" height="8" rx="2" fill="#0a1428"/>
    <text x="540" y="355" font-size="8" fill="#6a7a90">0 / 60</text>
    <rect x="640" y="334" width="80" height="8" rx="2" fill="#0a1428"/>
    <rect x="640" y="334" width="76" height="8" rx="2" fill="#4caf7d" opacity="0.7"/>
    <text x="640" y="355" font-size="8" fill="#4caf7d">95%</text>
    <text x="740" y="346" font-size="11" fill="#8a9ab0">0</text>
    <rect x="820" y="333" width="68" height="16" rx="2" fill="#1a2848" stroke="#f5a623" stroke-width="1"/>
    <text x="854" y="345" font-size="9" text-anchor="middle" fill="#ffd700">ASSIGN</text>
  </g>

  <!-- Construct new drone panel -->
  <rect x="30" y="374" width="900" height="100" rx="2" fill="#0a1020" stroke="#2a3a50" stroke-width="1"/>
  <text x="50" y="393" font-size="11" font-weight="bold" fill="#ffd700">BUILD NEW DRONE</text>
  <g font-size="10">
    <!-- Cargo Drone -->
    <rect x="50" y="400" width="130" height="60" rx="2" fill="#0d1428" stroke="#4a9fd4" stroke-width="1"/>
    <text x="115" y="418" font-size="10" text-anchor="middle" fill="#4a9fd4">⬡ CARGO DRONE</text>
    <text x="115" y="432" font-size="9" text-anchor="middle" fill="#8a9ab0">Cap: 60 · Speed: 8</text>
    <text x="115" y="446" font-size="9" text-anchor="middle" fill="#ffd700">◈ 800 + 4 FC</text>
    <text x="115" y="457" font-size="8" text-anchor="middle" fill="#4caf7d">BUILD (8s)</text>

    <!-- Scout Drone -->
    <rect x="190" y="400" width="130" height="60" rx="2" fill="#0d1428" stroke="#f5a623" stroke-width="1"/>
    <text x="255" y="418" font-size="10" text-anchor="middle" fill="#f5a623">◎ SCOUT DRONE</text>
    <text x="255" y="432" font-size="9" text-anchor="middle" fill="#8a9ab0">Range: 300u · Scan+</text>
    <text x="255" y="446" font-size="9" text-anchor="middle" fill="#ffd700">◈ 1,200 + 6 FC</text>
    <text x="255" y="457" font-size="8" text-anchor="middle" fill="#4caf7d">BUILD (12s)</text>

    <!-- Repair Drone -->
    <rect x="330" y="400" width="130" height="60" rx="2" fill="#0d1428" stroke="#c070e0" stroke-width="1"/>
    <text x="395" y="418" font-size="10" text-anchor="middle" fill="#c070e0">⚒ REPAIR DRONE</text>
    <text x="395" y="432" font-size="9" text-anchor="middle" fill="#8a9ab0">Auto-repair · Fast</text>
    <text x="395" y="446" font-size="9" text-anchor="middle" fill="#ffd700">◈ 2,000 + 8 FC</text>
    <text x="395" y="457" font-size="8" text-anchor="middle" fill="#4caf7d">BUILD (20s)</text>

    <!-- Heavy Cargo (locked) -->
    <rect x="470" y="400" width="130" height="60" rx="2" fill="#0a0e18" stroke="#2a3040" stroke-width="1" stroke-dasharray="4,3"/>
    <text x="535" y="418" font-size="10" text-anchor="middle" fill="#3a4060">⬡ HEAVY CARGO</text>
    <text x="535" y="432" font-size="9" text-anchor="middle" fill="#3a4060">Cap: 200 · Slow</text>
    <text x="535" y="446" font-size="9" text-anchor="middle" fill="#3a4060">🔒 Req. Tier 3</text>

    <text x="720" y="418" font-size="10" fill="#8a9ab0">Drone Slots:</text>
    <rect x="720" y="424" width="180" height="10" rx="2" fill="#0a1428"/>
    <rect x="720" y="424" width="158" height="10" rx="2" fill="#4a9fd4" opacity="0.5"/>
    <text x="720" y="448" font-size="9" fill="#e8d0a0">14 / 16 used</text>
    <text x="720" y="462" font-size="9" fill="#8a9ab0">+2 slots via Bay Expansion</text>
  </g>

  <g stroke="#f5a623" stroke-width="1" fill="none" opacity="0.2">
    <path d="M 20 20 L 20 42 L 42 42"/>
    <path d="M 940 20 L 940 42 L 918 42"/>
  </g>
</svg>
