<svg xmlns="http://www.w3.org/2000/svg" viewBox="0 0 960 540" width="960" height="540" font-family="'Courier New', monospace">
  <defs>
    <radialGradient id="bgGrad" cx="50%" cy="50%" r="70%">
      <stop offset="0%" stop-color="#0a0f20"/>
      <stop offset="100%" stop-color="#020408"/>
    </radialGradient>
    <linearGradient id="panelGrad" x1="0%" y1="0%" x2="0%" y2="100%">
      <stop offset="0%" stop-color="#0e1a2e"/>
      <stop offset="100%" stop-color="#080e1c"/>
    </linearGradient>
    <filter id="glowAmber">
      <feGaussianBlur stdDeviation="2" result="blur"/>
      <feFlood flood-color="#f5a623" flood-opacity="0.5" result="color"/>
      <feComposite in="color" in2="blur" operator="in" result="shadow"/>
      <feMerge><feMergeNode in="shadow"/><feMergeNode in="SourceGraphic"/></feMerge>
    </filter>
    <linearGradient id="hpGreen" x1="0%" y1="0%" x2="100%" y2="0%">
      <stop offset="0%" stop-color="#2a6040"/>
      <stop offset="100%" stop-color="#4caf7d"/>
    </linearGradient>
    <linearGradient id="hpAmber" x1="0%" y1="0%" x2="100%" y2="0%">
      <stop offset="0%" stop-color="#6a4010"/>
      <stop offset="100%" stop-color="#f5a623"/>
    </linearGradient>
  </defs>

  <rect width="960" height="540" fill="url(#bgGrad)"/>
  <g opacity="0.25"><circle cx="200" cy="40" r="0.8" fill="#fff"/><circle cx="700" cy="80" r="0.6" fill="#fff"/><circle cx="880" cy="30" r="0.9" fill="#fff"/></g>

  <rect x="15" y="35" width="930" height="490" rx="4" fill="url(#panelGrad)" stroke="#f5a623" stroke-width="1.5"/>
  <rect x="15" y="35" width="930" height="50" rx="4" fill="#0d1e38"/>
  <rect x="15" y="72" width="930" height="13" fill="#0d1e38"/>
  <line x1="15" y1="85" x2="945" y2="85" stroke="#f5a623" stroke-width="1.5" opacity="0.8"/>
  <text x="480" y="68" font-size="18" font-weight="bold" text-anchor="middle" fill="#ffd700" letter-spacing="4" filter="url(#glowAmber)">▲  FLEET MANAGEMENT</text>
  <text x="926" y="68" font-size="11" text-anchor="end" fill="#8a9ab0">[ T ] CLOSE</text>

  <!-- Summary bar -->
  <rect x="30" y="92" width="900" height="38" rx="2" fill="#0a1428" stroke="#2a3a50" stroke-width="0.5"/>
  <g font-size="10">
    <text x="50" y="106" fill="#8a9ab0">SHIPS</text>
    <text x="50" y="121" font-size="14" font-weight="bold" fill="#e8d0a0">3 / 4 max</text>
    <line x1="130" y1="97" x2="130" y2="125" stroke="#2a3a50" stroke-width="0.5"/>
    <text x="144" y="106" fill="#8a9ab0">EN ROUTE</text>
    <text x="144" y="121" font-size="14" font-weight="bold" fill="#4a9fd4">2</text>
    <line x1="220" y1="97" x2="220" y2="125" stroke="#2a3a50" stroke-width="0.5"/>
    <text x="234" y="106" fill="#8a9ab0">DOCKED</text>
    <text x="234" y="121" font-size="14" font-weight="bold" fill="#4caf7d">1</text>
    <line x1="310" y1="97" x2="310" y2="125" stroke="#2a3a50" stroke-width="0.5"/>
    <text x="324" y="106" fill="#8a9ab0">LOADING</text>
    <text x="324" y="121" font-size="14" font-weight="bold" fill="#f5a623">1</text>
    <line x1="400" y1="97" x2="400" y2="125" stroke="#2a3a50" stroke-width="0.5"/>
    <text x="414" y="106" fill="#8a9ab0">CARGO HAULED TODAY</text>
    <text x="414" y="121" font-size="14" font-weight="bold" fill="#e8d0a0">4,840 units</text>
    <line x1="620" y1="97" x2="620" y2="125" stroke="#2a3a50" stroke-width="0.5"/>
    <text x="634" y="106" fill="#8a9ab0">CREDITS EARNED</text>
    <text x="634" y="121" font-size="14" font-weight="bold" fill="#ffd700">◈ 24,200</text>
  </g>

  <!-- Column headers -->
  <rect x="30" y="136" width="900" height="22" fill="#0a1428"/>
  <line x1="30" y1="158" x2="930" y2="158" stroke="#2a3a50" stroke-width="0.5"/>
  <g font-size="9" fill="#6a7a90" letter-spacing="1">
    <text x="44" y="152">SHIP NAME</text>
    <text x="200" y="152">TYPE</text>
    <text x="290" y="152">STATUS</text>
    <text x="400" y="152">ROUTE</text>
    <text x="580" y="152">CARGO</text>
    <text x="680" y="152">ETA</text>
    <text x="760" y="152">HULL</text>
    <text x="840" y="152">ACTIONS</text>
  </g>

  <!-- Ship 1: Voidrunner-1 — EN ROUTE -->
  <rect x="30" y="158" width="900" height="70" fill="#0a1020"/>
  <line x1="30" y1="228" x2="930" y2="228" stroke="#1a2a40" stroke-width="0.5"/>
  <!-- Ship icon -->
  <polygon points="60,188 52,200 68,200" fill="#4a9fd4" opacity="0.8"/>
  <polygon points="60,185 55,192 65,192" fill="#6ab0d4" opacity="0.6"/>
  <text x="80" y="178" font-size="12" font-weight="bold" fill="#e8d0a0">Voidrunner-1</text>
  <text x="80" y="192" font-size="9" fill="#4a6080">ID: VR-001 · Cargo Class</text>
  <text x="200" y="185" font-size="10" fill="#e8d0a0">Cargo Hauler</text>
  <text x="200" y="199" font-size="9" fill="#4a6080">Cap: 500 units</text>
  <rect x="290" y="173" width="72" height="18" rx="2" fill="#0a1830"/>
  <text x="326" y="185" font-size="9" text-anchor="middle" fill="#4a9fd4">▶ EN ROUTE</text>
  <text x="400" y="179" font-size="10" fill="#e8d0a0">A1 → Planet B</text>
  <text x="400" y="193" font-size="9" fill="#4a6080">Krysite Ingots × 420</text>
  <text x="400" y="207" font-size="9" fill="#4a6080">Empty return</text>
  <!-- Cargo bar -->
  <rect x="580" y="175" width="90" height="8" rx="2" fill="#0a1428"/>
  <rect x="580" y="175" width="75" height="8" rx="2" fill="#4a9fd4" opacity="0.7"/>
  <text x="580" y="196" font-size="8" fill="#4a9fd4">420 / 500</text>
  <text x="680" y="185" font-size="11" fill="#e8d0a0">14m 22s</text>
  <!-- Hull bar -->
  <rect x="760" y="178" width="60" height="8" rx="2" fill="#0a1428"/>
  <rect x="760" y="178" width="57" height="8" rx="2" fill="url(#hpGreen)"/>
  <text x="760" y="200" font-size="8" fill="#4caf7d">95%</text>
  <rect x="840" y="173" width="78" height="18" rx="2" fill="#0d1428" stroke="#3a4a60" stroke-width="1"/>
  <text x="879" y="185" font-size="9" text-anchor="middle" fill="#8a9ab0">RECALL</text>

  <!-- Ship 2: Dawnfreighter — LOADING -->
  <rect x="30" y="228" width="900" height="70" fill="#0d1020"/>
  <line x1="30" y1="298" x2="930" y2="298" stroke="#1a2a40" stroke-width="0.5"/>
  <polygon points="60,258 52,270 68,270" fill="#f5a623" opacity="0.8"/>
  <polygon points="60,255 55,262 65,262" fill="#c08030" opacity="0.6"/>
  <text x="80" y="248" font-size="12" font-weight="bold" fill="#e8d0a0">Dawnfreighter</text>
  <text x="80" y="262" font-size="9" fill="#4a6080">ID: DF-002 · Heavy Cargo</text>
  <text x="200" y="255" font-size="10" fill="#e8d0a0">Heavy Hauler</text>
  <text x="200" y="269" font-size="9" fill="#4a6080">Cap: 1,200 units</text>
  <rect x="290" y="243" width="64" height="18" rx="2" fill="#1a1200"/>
  <text x="322" y="255" font-size="9" text-anchor="middle" fill="#f5a623">⟳ LOADING</text>
  <text x="400" y="249" font-size="10" fill="#e8d0a0">A1 → A2 Asteroid</text>
  <text x="400" y="263" font-size="9" fill="#f5a623">Loading: 840 / 1200 Vs</text>
  <text x="400" y="277" font-size="9" fill="#4a6080">ETA depart: 2m</text>
  <rect x="580" y="245" width="90" height="8" rx="2" fill="#0a1428"/>
  <rect x="580" y="245" width="63" height="8" rx="2" fill="url(#hpAmber)" opacity="0.8"/>
  <text x="580" y="266" font-size="8" fill="#f5a623">840 / 1200</text>
  <text x="680" y="255" font-size="11" fill="#f5a623">Loading…</text>
  <rect x="760" y="248" width="60" height="8" rx="2" fill="#0a1428"/>
  <rect x="760" y="248" width="42" height="8" rx="2" fill="url(#hpAmber)"/>
  <text x="760" y="270" font-size="8" fill="#f5a623">70%</text>
  <rect x="840" y="243" width="78" height="18" rx="2" fill="#1a2848" stroke="#f5a623" stroke-width="1"/>
  <text x="879" y="255" font-size="9" text-anchor="middle" fill="#ffd700">DISPATCH</text>

  <!-- Ship 3: Starcutter — DOCKED -->
  <rect x="30" y="298" width="900" height="70" fill="#0a1020"/>
  <line x1="30" y1="368" x2="930" y2="368" stroke="#1a2a40" stroke-width="0.5"/>
  <polygon points="60,328 52,340 68,340" fill="#4caf7d" opacity="0.8"/>
  <text x="80" y="318" font-size="12" font-weight="bold" fill="#e8d0a0">Starcutter</text>
  <text x="80" y="332" font-size="9" fill="#4a6080">ID: SC-003 · Fast Scout</text>
  <text x="200" y="325" font-size="10" fill="#e8d0a0">Scout Runner</text>
  <text x="200" y="339" font-size="9" fill="#4a6080">Cap: 200 units</text>
  <rect x="290" y="313" width="58" height="18" rx="2" fill="#0d2a10"/>
  <text x="319" y="325" font-size="9" text-anchor="middle" fill="#4caf7d">⊡ DOCKED</text>
  <text x="400" y="319" font-size="10" fill="#8a9ab0">No route assigned</text>
  <text x="400" y="333" font-size="9" fill="#4a6080">Awaiting orders</text>
  <rect x="580" y="315" width="90" height="8" rx="2" fill="#0a1428"/>
  <text x="580" y="336" font-size="8" fill="#6a7a90">—</text>
  <text x="680" y="325" font-size="11" fill="#8a9ab0">—</text>
  <rect x="760" y="318" width="60" height="8" rx="2" fill="#0a1428"/>
  <rect x="760" y="318" width="60" height="8" rx="2" fill="url(#hpGreen)"/>
  <text x="760" y="340" font-size="8" fill="#4caf7d">100%</text>
  <rect x="840" y="313" width="78" height="18" rx="2" fill="#1a2848" stroke="#f5a623" stroke-width="1"/>
  <text x="879" y="325" font-size="9" text-anchor="middle" fill="#ffd700">ASSIGN ROUTE</text>

  <!-- Empty slot 4 -->
  <rect x="30" y="368" width="900" height="50" fill="#060c18" stroke="#1a2030" stroke-width="0" stroke-dasharray="4,4"/>
  <line x1="30" y1="418" x2="930" y2="418" stroke="#1a2030" stroke-width="0.5"/>
  <text x="480" y="397" font-size="11" text-anchor="middle" fill="#2a3a50">[ + Add Ship Slot — Requires Spaceport Upgrade Lvl 2 ]</text>

  <!-- Route assignment quick panel -->
  <rect x="30" y="424" width="900" height="86" rx="2" fill="#0a1020" stroke="#2a3a50" stroke-width="1"/>
  <text x="50" y="443" font-size="11" font-weight="bold" fill="#ffd700">QUICK ROUTE — Starcutter</text>
  <g font-size="10">
    <text x="50" y="462" fill="#8a9ab0">FROM:</text>
    <rect x="90" y="452" width="120" height="20" rx="2" fill="#0d1428" stroke="#3a4a60" stroke-width="1"/>
    <text x="150" y="465" text-anchor="middle" fill="#e8d0a0">A1 (Current)</text>
    <text x="222" y="462" fill="#f5a623">→</text>
    <text x="238" y="462" fill="#8a9ab0">TO:</text>
    <rect x="262" y="452" width="120" height="20" rx="2" fill="#0d1428" stroke="#3a4a60" stroke-width="1"/>
    <text x="322" y="465" text-anchor="middle" fill="#e8d0a0">Planet B  ▾</text>
    <text x="400" y="462" fill="#8a9ab0">CARGO:</text>
    <rect x="448" y="452" width="160" height="20" rx="2" fill="#0d1428" stroke="#3a4a60" stroke-width="1"/>
    <text x="528" y="465" text-anchor="middle" fill="#e8d0a0">Krysite Ingot × 200  ▾</text>
    <text x="622" y="462" fill="#8a9ab0">RETURN:</text>
    <rect x="680" y="452" width="120" height="20" rx="2" fill="#0d1428" stroke="#3a4a60" stroke-width="1"/>
    <text x="740" y="465" text-anchor="middle" fill="#e8d0a0">Xenite × max  ▾</text>
  </g>
  <rect x="820" y="450" width="100" height="28" rx="2" fill="#1a2848" stroke="#f5a623" stroke-width="1.5"/>
  <text x="870" y="468" font-size="11" text-anchor="middle" fill="#ffd700">CONFIRM</text>
  <text x="50" y="498" font-size="9" fill="#6a7a90">Est. profit: ◈ 1,200 / trip  ·  Transit: 12m each way  ·  Net/hr: ◈ 3,000</text>

  <!-- Corner decorations -->
  <g stroke="#f5a623" stroke-width="1" fill="none" opacity="0.2">
    <path d="M 20 20 L 20 42 L 42 42"/>
    <path d="M 940 20 L 940 42 L 918 42"/>
  </g>
</svg>
