<svg xmlns="http://www.w3.org/2000/svg" viewBox="0 0 960 540" width="960" height="540" font-family="'Courier New', monospace">
  <defs>
    <radialGradient id="skyGrad" cx="50%" cy="30%" r="70%">
      <stop offset="0%" stop-color="#0a0f1e"/>
      <stop offset="100%" stop-color="#020408"/>
    </radialGradient>
    <linearGradient id="groundGrad" x1="0%" y1="0%" x2="0%" y2="100%">
      <stop offset="0%" stop-color="#141a0e"/>
      <stop offset="100%" stop-color="#0c1008"/>
    </linearGradient>
    <linearGradient id="hudBarGrad" x1="0%" y1="0%" x2="0%" y2="100%">
      <stop offset="0%" stop-color="#0d1e38" stop-opacity="0.95"/>
      <stop offset="100%" stop-color="#080e20" stop-opacity="0.95"/>
    </linearGradient>
    <filter id="glowGold">
      <feGaussianBlur stdDeviation="2" result="blur"/>
      <feFlood flood-color="#ffd700" flood-opacity="0.5" result="color"/>
      <feComposite in="color" in2="blur" operator="in" result="shadow"/>
      <feMerge><feMergeNode in="shadow"/><feMergeNode in="SourceGraphic"/></feMerge>
    </filter>
    <filter id="glowGreen">
      <feGaussianBlur stdDeviation="2" result="blur"/>
      <feFlood flood-color="#4caf7d" flood-opacity="0.5" result="color"/>
      <feComposite in="color" in2="blur" operator="in" result="shadow"/>
      <feMerge><feMergeNode in="shadow"/><feMergeNode in="SourceGraphic"/></feMerge>
    </filter>
    <filter id="glowAmber">
      <feGaussianBlur stdDeviation="2" result="blur"/>
      <feFlood flood-color="#f5a623" flood-opacity="0.5" result="color"/>
      <feComposite in="color" in2="blur" operator="in" result="shadow"/>
      <feMerge><feMergeNode in="shadow"/><feMergeNode in="SourceGraphic"/></feMerge>
    </filter>
  </defs>

  <!-- World -->
  <rect width="960" height="270" fill="url(#skyGrad)"/>
  <g opacity="0.5">
    <circle cx="45" cy="23" r="0.8" fill="#fff"/><circle cx="234" cy="14" r="1.0" fill="#fff"/>
    <circle cx="698" cy="18" r="1.0" fill="#e0ffff"/><circle cx="812" cy="72" r="0.7" fill="#fff"/>
    <circle cx="445" cy="31" r="0.8" fill="#fff"/><circle cx="120" cy="67" r="0.5" fill="#e0e0ff"/>
  </g>
  <rect x="0" y="270" width="960" height="270" fill="url(#groundGrad)"/>
  <g stroke="#1a2010" stroke-width="0.5" opacity="0.3">
    <line x1="0" y1="310" x2="960" y2="310"/><line x1="0" y1="350" x2="960" y2="350"/>
    <line x1="0" y1="390" x2="960" y2="390"/><line x1="0" y1="430" x2="960" y2="430"/>
    <line x1="80" y1="270" x2="80" y2="540"/><line x1="240" y1="270" x2="240" y2="540"/>
    <line x1="400" y1="270" x2="400" y2="540"/><line x1="560" y1="270" x2="560" y2="540"/>
    <line x1="720" y1="270" x2="720" y2="540"/>
  </g>
  <line x1="0" y1="270" x2="960" y2="270" stroke="#2a3820" stroke-width="1"/>

  <!-- ═══ COLONY BUILDINGS ═══ -->

  <!-- Habitation Module 1 -->
  <rect x="180" y="330" width="100" height="80" rx="3" fill="#1a2838" stroke="#4caf7d" stroke-width="2"/>
  <rect x="185" y="324" width="90" height="10" rx="1" fill="#253040"/>
  <!-- Windows (lit) -->
  <rect x="194" y="345" width="16" height="12" rx="1" fill="#ffd700" opacity="0.4"/>
  <rect x="218" y="345" width="16" height="12" rx="1" fill="#ffd700" opacity="0.5"/>
  <rect x="242" y="345" width="16" height="12" rx="1" fill="#ffd700" opacity="0.3"/>
  <rect x="194" y="366" width="16" height="12" rx="1" fill="#4a9fd4" opacity="0.4"/>
  <rect x="218" y="366" width="16" height="12" rx="1" fill="#4a9fd4" opacity="0.5"/>
  <!-- Door -->
  <rect x="215" y="390" width="20" height="20" rx="1" fill="#0d1428"/>
  <!-- Status light -->
  <circle cx="230" cy="334" r="4" fill="#4caf7d" opacity="0.9"/>
  <text x="230" y="417" font-size="7" text-anchor="middle" fill="#4caf7d">HAB MOD 1</text>
  <text x="230" y="427" font-size="6" text-anchor="middle" fill="#8a9ab0">Capacity: 2 pioneers</text>

  <!-- Habitation Module 2 -->
  <rect x="320" y="330" width="100" height="80" rx="3" fill="#1a2838" stroke="#4caf7d" stroke-width="2"/>
  <rect x="325" y="324" width="90" height="10" rx="1" fill="#253040"/>
  <rect x="334" y="345" width="16" height="12" rx="1" fill="#ffd700" opacity="0.5"/>
  <rect x="358" y="345" width="16" height="12" rx="1" fill="#ffd700" opacity="0.4"/>
  <rect x="382" y="345" width="16" height="12" rx="1" fill="#ffd700" opacity="0.3"/>
  <rect x="334" y="366" width="16" height="12" rx="1" fill="#4a9fd4" opacity="0.3"/>
  <rect x="358" y="366" width="16" height="12" rx="1" fill="#4a9fd4" opacity="0.4"/>
  <rect x="355" y="390" width="20" height="20" rx="1" fill="#0d1428"/>
  <circle cx="370" cy="334" r="4" fill="#4caf7d" opacity="0.9"/>
  <text x="370" y="417" font-size="7" text-anchor="middle" fill="#4caf7d">HAB MOD 2</text>
  <text x="370" y="427" font-size="6" text-anchor="middle" fill="#8a9ab0">Capacity: 2 pioneers</text>

  <!-- Water Pump -->
  <rect x="470" y="345" width="60" height="65" rx="2" fill="#1a2030" stroke="#4a9fd4" stroke-width="1.5"/>
  <rect x="476" y="340" width="48" height="8" rx="1" fill="#253040"/>
  <circle cx="500" cy="365" r="10" fill="#0d1828" stroke="#4a9fd4" stroke-width="1"/>
  <text x="500" y="369" font-size="8" text-anchor="middle" fill="#4a9fd4">〜</text>
  <text x="500" y="395" font-size="6" text-anchor="middle" fill="#4a9fd4">WATER</text>
  <text x="500" y="403" font-size="6" text-anchor="middle" fill="#4a9fd4">PUMP</text>

  <!-- Food Dome -->
  <ellipse cx="600" cy="385" rx="45" ry="30" fill="#0d1f0d" stroke="#4caf7d" stroke-width="1.5" opacity="0.9"/>
  <ellipse cx="600" cy="385" rx="38" ry="24" fill="#122012" opacity="0.8"/>
  <!-- Plants inside dome (suggestion) -->
  <line x1="585" y1="390" x2="585" y2="374" stroke="#2a6020" stroke-width="1.5"/>
  <circle cx="585" cy="373" r="5" fill="#2a6020" opacity="0.8"/>
  <line x1="600" y1="392" x2="600" y2="372" stroke="#3a7030" stroke-width="1.5"/>
  <circle cx="600" cy="371" r="6" fill="#3a7030" opacity="0.8"/>
  <line x1="615" y1="390" x2="615" y2="375" stroke="#2a6020" stroke-width="1.5"/>
  <circle cx="615" cy="374" r="4" fill="#2a6020" opacity="0.8"/>
  <text x="600" y="420" font-size="7" text-anchor="middle" fill="#4caf7d">FOOD DOME</text>

  <!-- Power Generator -->
  <rect x="680" y="355" width="55" height="50" rx="2" fill="#1a1a10" stroke="#f5a623" stroke-width="1.5"/>
  <circle cx="707" cy="375" r="10" fill="#1a1000" stroke="#f5a623" stroke-width="1"/>
  <text x="707" y="379" font-size="8" text-anchor="middle" fill="#f5a623">⚡</text>
  <text x="707" y="398" font-size="6" text-anchor="middle" fill="#f5a623">POWER</text>
  <text x="707" y="406" font-size="6" text-anchor="middle" fill="#f5a623">GEN</text>

  <!-- Pioneer figures (4 around the colony) -->
  <!-- Pioneer 1 -->
  <circle cx="260" cy="395" r="5" fill="#e8d0a0"/>
  <rect x="256" y="397" width="8" height="12" rx="1" fill="#3a5060"/>
  <!-- Pioneer 2 -->
  <circle cx="310" cy="408" r="5" fill="#d4b890"/>
  <rect x="306" y="410" width="8" height="12" rx="1" fill="#2a4050"/>
  <!-- Pioneer 3 -->
  <circle cx="430" cy="395" r="5" fill="#e8d0a0"/>
  <rect x="426" y="397" width="8" height="12" rx="1" fill="#405030"/>
  <!-- Pioneer 4 -->
  <circle cx="455" cy="410" r="5" fill="#c8b880"/>
  <rect x="451" y="412" width="8" height="12" rx="1" fill="#3a4060"/>

  <!-- Player -->
  <circle cx="140" cy="398" r="6" fill="#e8d0a0"/>
  <rect x="135" y="400" width="10" height="14" rx="1" fill="#2a4070"/>

  <!-- ═══ COLONY STATUS PANEL ═══ (right) -->
  <rect x="752" y="40" width="200" height="420" rx="3" fill="#05080f" stroke="#4caf7d" stroke-width="1.5" opacity="0.97"/>
  <rect x="752" y="40" width="200" height="32" rx="3" fill="#081808"/>
  <line x1="752" y1="72" x2="952" y2="72" stroke="#4caf7d" stroke-width="0.8" opacity="0.6"/>
  <text x="852" y="60" font-size="10" text-anchor="middle" fill="#4caf7d" font-weight="bold">COLONY STATUS</text>

  <g font-size="9">
    <!-- Population -->
    <text x="764" y="88" fill="#6a7a90">Population:</text>
    <text x="944" y="88" text-anchor="end" fill="#e8d0a0" font-weight="bold">4 Pioneers</text>

    <!-- Pioneer portraits (mini) -->
    <circle cx="768" cy="103" r="8" fill="#3a2a18" stroke="#4caf7d" stroke-width="1"/>
    <text x="768" y="107" font-size="7" text-anchor="middle" fill="#e8d0a0">P1</text>
    <circle cx="790" cy="103" r="8" fill="#3a2a18" stroke="#4caf7d" stroke-width="1"/>
    <text x="790" y="107" font-size="7" text-anchor="middle" fill="#e8d0a0">P2</text>
    <circle cx="812" cy="103" r="8" fill="#3a2a18" stroke="#4caf7d" stroke-width="1"/>
    <text x="812" y="107" font-size="7" text-anchor="middle" fill="#e8d0a0">P3</text>
    <circle cx="834" cy="103" r="8" fill="#3a2a18" stroke="#4caf7d" stroke-width="1"/>
    <text x="834" y="107" font-size="7" text-anchor="middle" fill="#e8d0a0">P4</text>

    <!-- Morale -->
    <text x="764" y="124" fill="#6a7a90">Morale:</text>
    <rect x="820" y="117" width="120" height="7" rx="2" fill="#0a1020"/>
    <rect x="820" y="117" width="96" height="7" rx="2" fill="#4caf7d" opacity="0.8"/>
    <text x="944" y="124" text-anchor="end" fill="#4caf7d">80%</text>

    <line x1="760" y1="130" x2="944" y2="130" stroke="#0a2010" stroke-width="0.5"/>

    <!-- Needs header -->
    <text x="764" y="144" fill="#8a9ab0" letter-spacing="1">NEEDS</text>

    <!-- Food -->
    <text x="764" y="160" fill="#6a7a90">Food:</text>
    <rect x="820" y="153" width="100" height="7" rx="2" fill="#0a1020"/>
    <rect x="820" y="153" width="80" height="7" rx="2" fill="#4caf7d" opacity="0.8"/>
    <text x="944" y="160" text-anchor="end" fill="#4caf7d">OK</text>
    <!-- Water -->
    <text x="764" y="175" fill="#6a7a90">Water:</text>
    <rect x="820" y="168" width="100" height="7" rx="2" fill="#0a1020"/>
    <rect x="820" y="168" width="72" height="7" rx="2" fill="#4caf7d" opacity="0.8"/>
    <text x="944" y="175" text-anchor="end" fill="#4caf7d">OK</text>
    <!-- Power -->
    <text x="764" y="190" fill="#6a7a90">Power:</text>
    <rect x="820" y="183" width="100" height="7" rx="2" fill="#0a1020"/>
    <rect x="820" y="183" width="85" height="7" rx="2" fill="#4caf7d" opacity="0.8"/>
    <text x="944" y="190" text-anchor="end" fill="#4caf7d">OK</text>
    <!-- Luxury (amber — partial) -->
    <text x="764" y="205" fill="#f5a623">Luxury:</text>
    <rect x="820" y="198" width="100" height="7" rx="2" fill="#0a1020"/>
    <rect x="820" y="198" width="32" height="7" rx="2" fill="#f5a623" opacity="0.7"/>
    <text x="944" y="205" text-anchor="end" fill="#f5a623">Low</text>

    <line x1="760" y1="212" x2="944" y2="212" stroke="#0a2010" stroke-width="0.5"/>

    <!-- Growth -->
    <text x="764" y="226" fill="#8a9ab0" letter-spacing="1">GROWTH</text>
    <text x="764" y="242" fill="#6a7a90">Capacity:</text>
    <text x="944" y="242" text-anchor="end" fill="#e8d0a0">4 / 4</text>
    <text x="764" y="258" fill="#6a7a90">Next Pioneer:</text>
    <text x="944" y="258" text-anchor="end" fill="#f5a623">Need luxury ↑</text>
    <rect x="764" y="262" width="176" height="20" rx="2" fill="#1a0c00" stroke="#f5a623" stroke-width="1" filter="url(#glowAmber)"/>
    <text x="852" y="276" font-size="8" text-anchor="middle" fill="#f5a623">Build Entertainment Module</text>

    <line x1="760" y1="288" x2="944" y2="288" stroke="#0a2010" stroke-width="0.5"/>

    <!-- Production roles -->
    <text x="764" y="302" fill="#8a9ab0" letter-spacing="1">PIONEER ROLES</text>
    <text x="764" y="318" fill="#6a7a90">P1 — Mining</text>
    <text x="944" y="318" text-anchor="end" fill="#4a9fd4">+8 ore/min</text>
    <text x="764" y="333" fill="#6a7a90">P2 — Crafting</text>
    <text x="944" y="333" text-anchor="end" fill="#f5a623">×1.2 speed</text>
    <text x="764" y="348" fill="#6a7a90">P3 — Farming</text>
    <text x="944" y="348" text-anchor="end" fill="#4caf7d">+12 food/min</text>
    <text x="764" y="363" fill="#6a7a90">P4 — Research</text>
    <text x="944" y="363" text-anchor="end" fill="#a0a8f8">+4 RP/min</text>

    <line x1="760" y1="370" x2="944" y2="370" stroke="#0a2010" stroke-width="0.5"/>

    <!-- Next growth timer -->
    <text x="764" y="385" fill="#4caf7d" font-weight="bold">HAB capacity:</text>
    <text x="944" y="385" text-anchor="end" fill="#4caf7d">4 slots</text>
    <text x="764" y="400" fill="#6a7a90">Max pop:</text>
    <text x="944" y="400" text-anchor="end" fill="#e8d0a0">4 (need HAB 3)</text>
    <rect x="764" y="406" width="176" height="26" rx="2" fill="#0d1828" stroke="#4a9fd4" stroke-width="1"/>
    <text x="852" y="416" font-size="7" text-anchor="middle" fill="#4a9fd4">[ B ] BUILD  Hab Module 3</text>
    <text x="852" y="428" font-size="7" text-anchor="middle" fill="#6a7a90">Cost: ◈ 800  ·  Adv. Parts ×4</text>
  </g>

  <!-- New pioneer arrival hint -->
  <rect x="0" y="460" width="740" height="36" rx="2" fill="#081808" stroke="#4caf7d" stroke-width="1" opacity="0.9"/>
  <text x="370" y="476" font-size="9" text-anchor="middle" fill="#4caf7d" font-weight="bold">COLONY GROWING!</text>
  <text x="370" y="490" font-size="8" text-anchor="middle" fill="#8a9ab0">Improve luxury supply to attract Pioneer 5 · Build Entertainment Module (◈ 1,200)</text>

  <!-- HUD top bar -->
  <rect x="0" y="0" width="960" height="32" fill="url(#hudBarGrad)"/>
  <line x1="0" y1="32" x2="960" y2="32" stroke="#f5a623" stroke-width="0.8" opacity="0.6"/>
  <text x="14" y="11" font-size="9" fill="#f5a623" opacity="0.7">CREDITS</text>
  <text x="14" y="26" font-size="14" font-weight="bold" fill="#ffd700">◈ 22,800</text>
  <line x1="100" y1="5" x2="100" y2="28" stroke="#2a3a50" stroke-width="0.5"/>
  <text x="113" y="11" font-size="9" fill="#9090f0" opacity="0.7">RESEARCH</text>
  <text x="113" y="26" font-size="14" font-weight="bold" fill="#a0a8f8">⬡ 1,820</text>
  <line x1="200" y1="5" x2="200" y2="28" stroke="#2a3a50" stroke-width="0.5"/>
  <text x="213" y="20" font-size="10" fill="#4caf7d">Pioneers: 4</text>
  <text x="480" y="20" font-size="12" text-anchor="middle" fill="#e8d0a0">A1 — Colony Zone</text>
  <text x="946" y="20" font-size="14" text-anchor="end" fill="#e8d0a0">02:10:44</text>

  <!-- Bottom bar -->
  <rect x="0" y="506" width="960" height="34" fill="url(#hudBarGrad)"/>
  <line x1="0" y1="506" x2="960" y2="506" stroke="#f5a623" stroke-width="0.8" opacity="0.6"/>
  <text x="480" y="527" font-size="10" text-anchor="middle" fill="#8a9ab0">[E] INTERACT  ·  [B] BUILD  ·  4 PIONEERS  ·  MORALE: 80%  ·  LUXURY: LOW</text>
</svg>
