<svg xmlns="http://www.w3.org/2000/svg" viewBox="0 0 960 540" width="960" height="540" font-family="'Courier New', monospace">
  <defs>
    <radialGradient id="skyGrad" cx="50%" cy="30%" r="70%">
      <stop offset="0%" stop-color="#0a0f1e"/>
      <stop offset="100%" stop-color="#020408"/>
    </radialGradient>
    <linearGradient id="groundGrad" x1="0%" y1="0%" x2="0%" y2="100%">
      <stop offset="0%" stop-color="#141a0e"/>
      <stop offset="100%" stop-color="#0c1008"/>
    </linearGradient>
    <linearGradient id="hudBarGrad" x1="0%" y1="0%" x2="0%" y2="100%">
      <stop offset="0%" stop-color="#0d1e38" stop-opacity="0.95"/>
      <stop offset="100%" stop-color="#080e20" stop-opacity="0.95"/>
    </linearGradient>
    <filter id="glowBlue">
      <feGaussianBlur stdDeviation="2" result="blur"/>
      <feFlood flood-color="#4a9fd4" flood-opacity="0.6" result="color"/>
      <feComposite in="color" in2="blur" operator="in" result="shadow"/>
      <feMerge><feMergeNode in="shadow"/><feMergeNode in="SourceGraphic"/></feMerge>
    </filter>
    <filter id="glowAmber">
      <feGaussianBlur stdDeviation="2" result="blur"/>
      <feFlood flood-color="#f5a623" flood-opacity="0.5" result="color"/>
      <feComposite in="color" in2="blur" operator="in" result="shadow"/>
      <feMerge><feMergeNode in="shadow"/><feMergeNode in="SourceGraphic"/></feMerge>
    </filter>
    <filter id="glowPurple">
      <feGaussianBlur stdDeviation="2" result="blur"/>
      <feFlood flood-color="#c070e0" flood-opacity="0.6" result="color"/>
      <feComposite in="color" in2="blur" operator="in" result="shadow"/>
      <feMerge><feMergeNode in="shadow"/><feMergeNode in="SourceGraphic"/></feMerge>
    </filter>
  </defs>

  <!-- World -->
  <rect width="960" height="260" fill="url(#skyGrad)"/>
  <g opacity="0.5">
    <circle cx="45" cy="23" r="0.8" fill="#fff"/><circle cx="234" cy="14" r="1.0" fill="#fff"/>
    <circle cx="698" cy="18" r="1.0" fill="#e0ffff"/><circle cx="812" cy="72" r="0.7" fill="#fff"/>
    <circle cx="445" cy="31" r="0.8" fill="#fff"/><circle cx="120" cy="67" r="0.5" fill="#e0e0ff"/>
    <circle cx="567" cy="55" r="0.5" fill="#fff"/>
  </g>
  <rect x="0" y="260" width="960" height="280" fill="url(#groundGrad)"/>
  <g stroke="#1a2010" stroke-width="0.5" opacity="0.3">
    <line x1="0" y1="300" x2="960" y2="300"/><line x1="0" y1="340" x2="960" y2="340"/>
    <line x1="0" y1="380" x2="960" y2="380"/><line x1="0" y1="420" x2="960" y2="420"/><line x1="0" y1="460" x2="960" y2="460"/>
    <line x1="80" y1="260" x2="80" y2="540"/><line x1="160" y1="260" x2="160" y2="540"/>
    <line x1="240" y1="260" x2="240" y2="540"/><line x1="320" y1="260" x2="320" y2="540"/>
    <line x1="400" y1="260" x2="400" y2="540"/><line x1="480" y1="260" x2="480" y2="540"/>
    <line x1="560" y1="260" x2="560" y2="540"/><line x1="640" y1="260" x2="640" y2="540"/>
    <line x1="720" y1="260" x2="720" y2="540"/>
  </g>
  <line x1="0" y1="260" x2="960" y2="260" stroke="#2a3820" stroke-width="1"/>

  <!-- Buildings on ground -->
  <!-- Harvester 1 (left) -->
  <rect x="110" y="358" width="48" height="34" rx="2" fill="#2a3848" stroke="#4caf7d" stroke-width="1.5"/>
  <circle cx="134" cy="368" r="4" fill="#4caf7d" opacity="0.85"/>
  <text x="134" y="398" font-size="6" text-anchor="middle" fill="#4caf7d">H1</text>
  <ellipse cx="134" cy="395" rx="24" ry="10" fill="#2a1a08" stroke="#6a4020" stroke-width="1" opacity="0.8"/>

  <!-- Harvester 2 (center-left) -->
  <rect x="290" y="368" width="48" height="34" rx="2" fill="#2a3848" stroke="#4caf7d" stroke-width="1.5"/>
  <circle cx="314" cy="378" r="4" fill="#4caf7d" opacity="0.85"/>
  <text x="314" y="408" font-size="6" text-anchor="middle" fill="#4caf7d">H2</text>
  <ellipse cx="314" cy="405" rx="24" ry="10" fill="#1a1a28" stroke="#4a3a70" stroke-width="1" opacity="0.8"/>

  <!-- Harvester 3 (center-right) -->
  <rect x="460" y="360" width="48" height="34" rx="2" fill="#2a3848" stroke="#4caf7d" stroke-width="1.5"/>
  <circle cx="484" cy="370" r="4" fill="#4caf7d" opacity="0.85"/>
  <text x="484" y="400" font-size="6" text-anchor="middle" fill="#4caf7d">H3</text>
  <ellipse cx="484" cy="397" rx="24" ry="10" fill="#2a1a08" stroke="#6a4020" stroke-width="1" opacity="0.8"/>

  <!-- Storage Silo A -->
  <rect x="610" y="340" width="65" height="70" rx="2" fill="#1a2030" stroke="#3a5070" stroke-width="1.5"/>
  <rect x="616" y="335" width="53" height="8" rx="1" fill="#252e3a"/>
  <rect x="620" y="350" width="45" height="50" rx="1" fill="#101828"/>
  <rect x="624" y="368" width="37" height="32" rx="1" fill="#4a9fd4" opacity="0.4"/>
  <text x="642" y="354" font-size="6" text-anchor="middle" fill="#4a9fd4">STORAGE A</text>
  <text x="642" y="388" font-size="7" text-anchor="middle" fill="#4a9fd4">74%</text>

  <!-- Scout Hub -->
  <rect x="720" y="380" width="55" height="42" rx="2" fill="#1a1820" stroke="#f5a623" stroke-width="1.5"/>
  <circle cx="747" cy="398" r="8" fill="none" stroke="#f5a623" stroke-width="1" stroke-dasharray="3,2" opacity="0.7"/>
  <text x="747" y="402" font-size="6" text-anchor="middle" fill="#f5a623">SCOUT</text>
  <text x="747" y="410" font-size="6" text-anchor="middle" fill="#f5a623">HUB</text>

  <!-- Repair Hub -->
  <rect x="820" y="365" width="55" height="42" rx="2" fill="#1a1428" stroke="#c070e0" stroke-width="1.5"/>
  <text x="847" y="385" font-size="6" text-anchor="middle" fill="#c070e0">REPAIR</text>
  <text x="847" y="393" font-size="6" text-anchor="middle" fill="#c070e0">HUB</text>
  <circle cx="847" cy="400" r="5" fill="none" stroke="#c070e0" stroke-width="1" opacity="0.7"/>

  <!-- ══ DRONE NETWORK — flight paths ══ -->
  <!-- CARGO-01: H1 → Storage A (blue dashed) -->
  <path d="M 158 370 Q 300 280 612 360" fill="none" stroke="#4a9fd4" stroke-width="1" stroke-dasharray="6,4" opacity="0.4"/>
  <!-- CARGO-02: Storage A → H2 (return, blue dashed) -->
  <path d="M 610 375 Q 480 310 338 380" fill="none" stroke="#4a9fd4" stroke-width="1" stroke-dasharray="6,4" opacity="0.3"/>
  <!-- CARGO-03: H3 → Storage A -->
  <path d="M 508 368 Q 560 310 612 365" fill="none" stroke="#4a9fd4" stroke-width="1" stroke-dasharray="5,4" opacity="0.35"/>
  <!-- CARGO-04: Storage A → H1 (return) -->
  <path d="M 612 368 Q 400 430 158 380" fill="none" stroke="#4a9fd4" stroke-width="1" stroke-dasharray="5,4" opacity="0.25"/>
  <!-- SCOUT-01: Scout Hub → far right (exploring) -->
  <path d="M 747 380 Q 820 300 900 260" fill="none" stroke="#f5a623" stroke-width="1" stroke-dasharray="5,4" opacity="0.35"/>
  <!-- REPAIR-01: Repair Hub → H2 -->
  <path d="M 820 375 Q 600 330 338 375" fill="none" stroke="#c070e0" stroke-width="1" stroke-dasharray="4,4" opacity="0.3"/>

  <!-- ══ DRONE SPRITES ══ -->
  <!-- Helper macro — inline each drone -->
  <!-- CARGO-01 (blue, mid-path H1→Storage) ~330,310 -->
  <g filter="url(#glowBlue)">
    <rect x="322" y="304" width="16" height="10" rx="2" fill="#1a3050" stroke="#4a9fd4" stroke-width="1"/>
    <line x1="322" y1="307" x2="314" y2="301" stroke="#2a4060" stroke-width="1.5"/>
    <line x1="338" y1="307" x2="346" y2="301" stroke="#2a4060" stroke-width="1.5"/>
    <circle cx="313" cy="300" r="3" fill="none" stroke="#4a9fd4" stroke-width="1" opacity="0.9"/>
    <circle cx="347" cy="300" r="3" fill="none" stroke="#4a9fd4" stroke-width="1" opacity="0.9"/>
    <rect x="326" y="314" width="8" height="6" rx="1" fill="#2a4a20" stroke="#4caf7d" stroke-width="0.8"/>
  </g>
  <text x="330" y="298" font-size="6" text-anchor="middle" fill="#4a9fd4">C-01</text>

  <!-- CARGO-02 (blue, return ~500,330) -->
  <g filter="url(#glowBlue)">
    <rect x="492" y="322" width="16" height="10" rx="2" fill="#1a3050" stroke="#4a9fd4" stroke-width="1" opacity="0.8"/>
    <line x1="492" y1="325" x2="484" y2="319" stroke="#2a4060" stroke-width="1.5"/>
    <line x1="508" y1="325" x2="516" y2="319" stroke="#2a4060" stroke-width="1.5"/>
    <circle cx="483" cy="318" r="3" fill="none" stroke="#4a9fd4" stroke-width="1" opacity="0.7"/>
    <circle cx="517" cy="318" r="3" fill="none" stroke="#4a9fd4" stroke-width="1" opacity="0.7"/>
  </g>
  <text x="500" y="316" font-size="6" text-anchor="middle" fill="#4a9fd4">C-02</text>

  <!-- CARGO-03 (blue, H3→storage ~546,330) -->
  <g filter="url(#glowBlue)">
    <rect x="540" y="318" width="14" height="9" rx="2" fill="#1a3050" stroke="#4a9fd4" stroke-width="1" opacity="0.9"/>
    <line x1="540" y1="321" x2="533" y2="315" stroke="#2a4060" stroke-width="1.5"/>
    <line x1="554" y1="321" x2="561" y2="315" stroke="#2a4060" stroke-width="1.5"/>
    <circle cx="532" cy="314" r="3" fill="none" stroke="#4a9fd4" stroke-width="1" opacity="0.8"/>
    <circle cx="562" cy="314" r="3" fill="none" stroke="#4a9fd4" stroke-width="1" opacity="0.8"/>
    <rect x="543" y="327" width="8" height="5" rx="1" fill="#2a4a20" stroke="#4caf7d" stroke-width="0.7"/>
  </g>
  <text x="547" y="312" font-size="6" text-anchor="middle" fill="#4a9fd4">C-03</text>

  <!-- CARGO-04 (return ~350,420) -->
  <g>
    <rect x="343" y="416" width="14" height="9" rx="2" fill="#1a3050" stroke="#4a9fd4" stroke-width="1" opacity="0.7"/>
    <line x1="343" y1="419" x2="336" y2="413" stroke="#2a4060" stroke-width="1.5"/>
    <line x1="357" y1="419" x2="364" y2="413" stroke="#2a4060" stroke-width="1.5"/>
    <circle cx="335" cy="412" r="3" fill="none" stroke="#4a9fd4" stroke-width="1" opacity="0.6"/>
    <circle cx="365" cy="412" r="3" fill="none" stroke="#4a9fd4" stroke-width="1" opacity="0.6"/>
  </g>
  <text x="350" y="410" font-size="6" text-anchor="middle" fill="#4a9fd4" opacity="0.8">C-04</text>

  <!-- SCOUT-01 (amber, ~855,285) -->
  <g filter="url(#glowAmber)">
    <rect x="849" y="280" width="14" height="9" rx="2" fill="#201808" stroke="#f5a623" stroke-width="1"/>
    <line x1="849" y1="283" x2="842" y2="277" stroke="#402808" stroke-width="1.5"/>
    <line x1="863" y1="283" x2="870" y2="277" stroke="#402808" stroke-width="1.5"/>
    <circle cx="841" cy="276" r="3" fill="none" stroke="#f5a623" stroke-width="1" opacity="0.9"/>
    <circle cx="871" cy="276" r="3" fill="none" stroke="#f5a623" stroke-width="1" opacity="0.9"/>
    <!-- Sensor pings -->
    <circle cx="856" cy="285" r="8" fill="none" stroke="#f5a623" stroke-width="0.5" stroke-dasharray="2,2" opacity="0.5"/>
    <circle cx="856" cy="285" r="14" fill="none" stroke="#f5a623" stroke-width="0.3" stroke-dasharray="2,3" opacity="0.3"/>
  </g>
  <text x="856" y="274" font-size="6" text-anchor="middle" fill="#f5a623">S-01</text>

  <!-- REPAIR-01 (purple, mid-path ~580,345) -->
  <g filter="url(#glowPurple)">
    <rect x="574" y="340" width="14" height="9" rx="2" fill="#180820" stroke="#c070e0" stroke-width="1"/>
    <line x1="574" y1="343" x2="567" y2="337" stroke="#301040" stroke-width="1.5"/>
    <line x1="588" y1="343" x2="595" y2="337" stroke="#301040" stroke-width="1.5"/>
    <circle cx="566" cy="336" r="3" fill="none" stroke="#c070e0" stroke-width="1" opacity="0.9"/>
    <circle cx="596" cy="336" r="3" fill="none" stroke="#c070e0" stroke-width="1" opacity="0.9"/>
  </g>
  <text x="581" y="334" font-size="6" text-anchor="middle" fill="#c070e0">R-01</text>

  <!-- ═══ DRONE NETWORK SIDEBAR ═══ -->
  <rect x="0" y="40" width="220" height="290" rx="3" fill="#05080f" stroke="#4a9fd4" stroke-width="1.5" opacity="0.96"/>
  <rect x="0" y="40" width="220" height="30" rx="3" fill="#050e20"/>
  <line x1="0" y1="70" x2="220" y2="70" stroke="#4a9fd4" stroke-width="0.8" opacity="0.6"/>
  <text x="110" y="59" font-size="10" text-anchor="middle" fill="#4a9fd4">DRONE NETWORK</text>

  <g font-size="8">
    <!-- Header row -->
    <text x="12" y="84" fill="#4a5a70">ID</text>
    <text x="48" y="84" fill="#4a5a70">TYPE</text>
    <text x="100" y="84" fill="#4a5a70">STATUS</text>
    <text x="170" y="84" fill="#4a5a70">BAT</text>
    <line x1="8" y1="87" x2="212" y2="87" stroke="#1a2a40" stroke-width="0.5"/>

    <!-- CARGO-01 -->
    <text x="12" y="100" fill="#4a9fd4">C-01</text>
    <text x="48" y="100" fill="#6a7a90">CARGO</text>
    <text x="100" y="100" fill="#4caf7d">HAULING</text>
    <rect x="168" y="94" width="38" height="6" rx="1" fill="#0a1020"/>
    <rect x="168" y="94" width="31" height="6" rx="1" fill="#4caf7d" opacity="0.8"/>
    <text x="206" y="100" text-anchor="end" fill="#4caf7d" font-size="7">82%</text>

    <!-- CARGO-02 -->
    <text x="12" y="115" fill="#4a9fd4">C-02</text>
    <text x="48" y="115" fill="#6a7a90">CARGO</text>
    <text x="100" y="115" fill="#8a9ab0">RETURN</text>
    <rect x="168" y="109" width="38" height="6" rx="1" fill="#0a1020"/>
    <rect x="168" y="109" width="26" height="6" rx="1" fill="#4caf7d" opacity="0.7"/>
    <text x="206" y="115" text-anchor="end" fill="#4caf7d" font-size="7">68%</text>

    <!-- CARGO-03 -->
    <text x="12" y="130" fill="#4a9fd4">C-03</text>
    <text x="48" y="130" fill="#6a7a90">CARGO</text>
    <text x="100" y="130" fill="#4caf7d">HAULING</text>
    <rect x="168" y="124" width="38" height="6" rx="1" fill="#0a1020"/>
    <rect x="168" y="124" width="34" height="6" rx="1" fill="#4caf7d" opacity="0.8"/>
    <text x="206" y="130" text-anchor="end" fill="#4caf7d" font-size="7">90%</text>

    <!-- CARGO-04 -->
    <text x="12" y="145" fill="#4a9fd4">C-04</text>
    <text x="48" y="145" fill="#6a7a90">CARGO</text>
    <text x="100" y="145" fill="#8a9ab0">RETURN</text>
    <rect x="168" y="139" width="38" height="6" rx="1" fill="#0a1020"/>
    <rect x="168" y="139" width="19" height="6" rx="1" fill="#f5a623" opacity="0.8"/>
    <text x="206" y="145" text-anchor="end" fill="#f5a623" font-size="7">51%</text>

    <!-- SCOUT-01 -->
    <text x="12" y="160" fill="#f5a623">S-01</text>
    <text x="48" y="160" fill="#6a7a90">SCOUT</text>
    <text x="100" y="160" fill="#f5a623">SCANNING</text>
    <rect x="168" y="154" width="38" height="6" rx="1" fill="#0a1020"/>
    <rect x="168" y="154" width="28" height="6" rx="1" fill="#f5a623" opacity="0.8"/>
    <text x="206" y="160" text-anchor="end" fill="#f5a623" font-size="7">74%</text>

    <!-- REPAIR-01 -->
    <text x="12" y="175" fill="#c070e0">R-01</text>
    <text x="48" y="175" fill="#6a7a90">REPAIR</text>
    <text x="100" y="175" fill="#c070e0">EN ROUTE</text>
    <rect x="168" y="169" width="38" height="6" rx="1" fill="#0a1020"/>
    <rect x="168" y="169" width="30" height="6" rx="1" fill="#c070e0" opacity="0.7"/>
    <text x="206" y="175" text-anchor="end" fill="#c070e0" font-size="7">78%</text>

    <line x1="8" y1="180" x2="212" y2="180" stroke="#1a2a40" stroke-width="0.5"/>

    <!-- Summary -->
    <text x="12" y="194" fill="#6a7a90">Active Drones:</text>
    <text x="210" y="194" text-anchor="end" fill="#e8d0a0">6 / 8</text>
    <text x="12" y="208" fill="#6a7a90">Total Hauls Today:</text>
    <text x="210" y="208" text-anchor="end" fill="#e8d0a0">184</text>
    <text x="12" y="222" fill="#6a7a90">Ore Moved/min:</text>
    <text x="210" y="222" text-anchor="end" fill="#4caf7d">+128 units</text>
    <text x="12" y="236" fill="#6a7a90">Network Load:</text>
    <rect x="90" y="229" width="90" height="7" rx="2" fill="#0a1020"/>
    <rect x="90" y="229" width="55" height="7" rx="2" fill="#4caf7d" opacity="0.7"/>
    <text x="210" y="236" text-anchor="end" fill="#4caf7d">61%</text>

    <line x1="8" y1="242" x2="212" y2="242" stroke="#1a2a40" stroke-width="0.5"/>
    <text x="12" y="256" fill="#6a7a90">Legend:</text>
    <rect x="12" y="261" width="8" height="5" rx="1" fill="#4a9fd4"/>
    <text x="24" y="266" fill="#4a9fd4">Cargo</text>
    <rect x="65" y="261" width="8" height="5" rx="1" fill="#f5a623"/>
    <text x="77" y="266" fill="#f5a623">Scout</text>
    <rect x="118" y="261" width="8" height="5" rx="1" fill="#c070e0"/>
    <text x="130" y="266" fill="#c070e0">Repair</text>

    <text x="12" y="282" fill="#3a4a60">Idle Slots: 2 of 8</text>
    <text x="12" y="294" fill="#3a4a60">[ D ] Open Drone Bay</text>
  </g>

  <!-- HUD top bar -->
  <rect x="0" y="0" width="960" height="32" fill="url(#hudBarGrad)"/>
  <line x1="0" y1="32" x2="960" y2="32" stroke="#f5a623" stroke-width="0.8" opacity="0.6"/>
  <text x="14" y="11" font-size="9" fill="#f5a623" opacity="0.7">CREDITS</text>
  <text x="14" y="26" font-size="14" font-weight="bold" fill="#ffd700">◈ 8,640</text>
  <line x1="100" y1="5" x2="100" y2="28" stroke="#2a3a50" stroke-width="0.5"/>
  <text x="113" y="11" font-size="9" fill="#9090f0" opacity="0.7">RESEARCH</text>
  <text x="113" y="26" font-size="14" font-weight="bold" fill="#a0a8f8">⬡ 480</text>
  <text x="480" y="20" font-size="12" text-anchor="middle" fill="#e8d0a0">A1 — Drone Network View</text>
  <text x="946" y="20" font-size="14" text-anchor="end" fill="#e8d0a0">00:52:18</text>

  <!-- Bottom bar -->
  <rect x="0" y="506" width="960" height="34" fill="url(#hudBarGrad)"/>
  <line x1="0" y1="506" x2="960" y2="506" stroke="#f5a623" stroke-width="0.8" opacity="0.6"/>
  <text x="480" y="527" font-size="10" text-anchor="middle" fill="#8a9ab0">[D] DRONE BAY  ·  [O] OVERLAY  ·  6 DRONES ACTIVE  ·  +128 units/min hauled</text>
</svg>
