<svg xmlns="http://www.w3.org/2000/svg" viewBox="0 0 960 540" width="960" height="540" font-family="'Courier New', monospace">
  <defs>
    <radialGradient id="bgGrad" cx="50%" cy="50%" r="70%">
      <stop offset="0%" stop-color="#0a0f20"/>
      <stop offset="100%" stop-color="#020408"/>
    </radialGradient>
    <linearGradient id="panelGrad" x1="0%" y1="0%" x2="0%" y2="100%">
      <stop offset="0%" stop-color="#0e1a2e"/>
      <stop offset="100%" stop-color="#080e1c"/>
    </linearGradient>
    <filter id="glowAmber">
      <feGaussianBlur stdDeviation="3" result="blur"/>
      <feFlood flood-color="#f5a623" flood-opacity="0.6" result="color"/>
      <feComposite in="color" in2="blur" operator="in" result="shadow"/>
      <feMerge><feMergeNode in="shadow"/><feMergeNode in="SourceGraphic"/></feMerge>
    </filter>
    <filter id="glowBlue">
      <feGaussianBlur stdDeviation="2" result="blur"/>
      <feFlood flood-color="#4a9fd4" flood-opacity="0.6" result="color"/>
      <feComposite in="color" in2="blur" operator="in" result="shadow"/>
      <feMerge><feMergeNode in="shadow"/><feMergeNode in="SourceGraphic"/></feMerge>
    </filter>
    <filter id="glowGreen">
      <feGaussianBlur stdDeviation="2" result="blur"/>
      <feFlood flood-color="#4caf7d" flood-opacity="0.5" result="color"/>
      <feComposite in="color" in2="blur" operator="in" result="shadow"/>
      <feMerge><feMergeNode in="shadow"/><feMergeNode in="SourceGraphic"/></feMerge>
    </filter>
  </defs>

  <rect width="960" height="540" fill="url(#bgGrad)"/>
  <g opacity="0.2">
    <circle cx="45" cy="23" r="0.8" fill="#ffffff"/>
    <circle cx="234" cy="14" r="1.0" fill="#ffffff"/>
    <circle cx="812" cy="72" r="0.7" fill="#ffffff"/>
    <circle cx="920" cy="40" r="0.9" fill="#ffffff"/>
    <circle cx="534" cy="200" r="0.6" fill="#ffffff"/>
    <circle cx="734" cy="380" r="0.7" fill="#ffffff"/>
  </g>

  <!-- Panel -->
  <rect x="0" y="0" width="960" height="540" fill="url(#panelGrad)" opacity="0.95"/>
  <rect x="0" y="0" width="960" height="48" fill="#0d1e38"/>
  <line x1="0" y1="48" x2="960" y2="48" stroke="#f5a623" stroke-width="1.5" opacity="0.8"/>
  <text x="480" y="32" font-size="18" font-weight="bold" text-anchor="middle" fill="#ffd700" letter-spacing="4" filter="url(#glowAmber)">✦  TECHNOLOGY TREE</text>
  <text x="926" y="32" font-size="11" text-anchor="end" fill="#8a9ab0">[ R ] CLOSE</text>

  <!-- RP counter top right -->
  <rect x="14" y="12" width="140" height="26" rx="2" fill="#0a1428" stroke="#7070d4" stroke-width="1"/>
  <text x="24" y="24" font-size="9" fill="#7070d4">RESEARCH POINTS</text>
  <text x="24" y="36" font-size="13" font-weight="bold" fill="#a0a8f8">⬡ 2,840 RP</text>

  <!-- Category sidebar -->
  <rect x="0" y="48" width="120" height="492" fill="#080e18" stroke="#1a2a40" stroke-width="0"/>
  <line x1="120" y1="48" x2="120" y2="540" stroke="#2a3a50" stroke-width="1"/>

  <g font-size="10" text-anchor="middle">
    <rect x="4" y="56" width="112" height="36" rx="2" fill="#1a2848" stroke="#f5a623" stroke-width="1"/>
    <text x="60" y="72" fill="#ffd700">⛏</text>
    <text x="60" y="84" fill="#ffd700">EXTRACTION</text>

    <rect x="4" y="98" width="112" height="36" rx="2" fill="#0a1020" stroke="#2a3a50" stroke-width="1"/>
    <text x="60" y="114" fill="#6a7a90">⚙</text>
    <text x="60" y="126" fill="#6a7a90">PROCESSING</text>

    <rect x="4" y="140" width="112" height="36" rx="2" fill="#0a1020" stroke="#2a3a50" stroke-width="1"/>
    <text x="60" y="156" fill="#6a7a90">⬡</text>
    <text x="60" y="168" fill="#6a7a90">LOGISTICS</text>

    <rect x="4" y="182" width="112" height="36" rx="2" fill="#0a1020" stroke="#2a3a50" stroke-width="1"/>
    <text x="60" y="198" fill="#6a7a90">★</text>
    <text x="60" y="210" fill="#6a7a90">COLONY</text>

    <rect x="4" y="224" width="112" height="36" rx="2" fill="#0a1020" stroke="#2a3a50" stroke-width="1"/>
    <text x="60" y="240" fill="#6a7a90">▲</text>
    <text x="60" y="252" fill="#6a7a90">SPACEFLIGHT</text>
  </g>

  <!-- EXTRACTION TREE nodes -->
  <!-- Row labels -->
  <text x="150" y="66" font-size="9" fill="#6a7a90" letter-spacing="2">TIER 1</text>
  <text x="310" y="66" font-size="9" fill="#6a7a90" letter-spacing="2">TIER 2</text>
  <text x="480" y="66" font-size="9" fill="#6a7a90" letter-spacing="2">TIER 3</text>
  <text x="650" y="66" font-size="9" fill="#6a7a90" letter-spacing="2">TIER 4</text>
  <text x="810" y="66" font-size="9" fill="#6a7a90" letter-spacing="2">TIER 5</text>

  <!-- Connection lines -->
  <!-- T1→T2 -->
  <line x1="230" y1="120" x2="295" y2="120" stroke="#4caf7d" stroke-width="1.5" opacity="0.5"/>
  <line x1="230" y1="180" x2="295" y2="180" stroke="#4caf7d" stroke-width="1.5" opacity="0.5"/>
  <line x1="230" y1="120" x2="295" y2="180" stroke="#4caf7d" stroke-width="1" opacity="0.3"/>
  <!-- T2→T3 -->
  <line x1="395" y1="120" x2="460" y2="120" stroke="#4caf7d" stroke-width="1.5" opacity="0.5"/>
  <line x1="395" y1="180" x2="460" y2="240" stroke="#4caf7d" stroke-width="1" opacity="0.3"/>
  <line x1="395" y1="120" x2="460" y2="180" stroke="#f5a623" stroke-width="1" stroke-dasharray="4,3" opacity="0.4"/>
  <!-- T3→T4 -->
  <line x1="565" y1="120" x2="630" y2="120" stroke="#f5a623" stroke-width="1" stroke-dasharray="4,3" opacity="0.4"/>
  <line x1="565" y1="240" x2="630" y2="180" stroke="#3a4a60" stroke-width="1" stroke-dasharray="3,4" opacity="0.3"/>
  <!-- T4→T5 -->
  <line x1="735" y1="120" x2="800" y2="120" stroke="#3a4a60" stroke-width="1" stroke-dasharray="3,4" opacity="0.3"/>

  <!-- TIER 1 nodes (unlocked/green) -->
  <!-- Basic Harvester -->
  <rect x="135" y="96" width="95" height="50" rx="3" fill="#0d2a10" stroke="#4caf7d" stroke-width="2" filter="url(#glowGreen)"/>
  <text x="182" y="114" font-size="8" text-anchor="middle" fill="#4caf7d" letter-spacing="1">⛏ HARVESTER</text>
  <text x="182" y="126" font-size="8" text-anchor="middle" fill="#4caf7d">Basic Mk.I</text>
  <rect x="140" y="130" width="85" height="12" rx="2" fill="#0a2010"/>
  <text x="182" y="140" font-size="7" text-anchor="middle" fill="#4caf7d">✓ UNLOCKED</text>

  <!-- Survey Tool -->
  <rect x="135" y="158" width="95" height="50" rx="3" fill="#0d2a10" stroke="#4caf7d" stroke-width="2" filter="url(#glowGreen)"/>
  <text x="182" y="176" font-size="8" text-anchor="middle" fill="#4caf7d" letter-spacing="1">⊕ SURVEY</text>
  <text x="182" y="188" font-size="8" text-anchor="middle" fill="#4caf7d">Survey Tool</text>
  <rect x="140" y="192" width="85" height="12" rx="2" fill="#0a2010"/>
  <text x="182" y="202" font-size="7" text-anchor="middle" fill="#4caf7d">✓ UNLOCKED</text>

  <!-- TIER 2 nodes -->
  <!-- Harvester Mk.II -->
  <rect x="300" y="96" width="95" height="50" rx="3" fill="#0d2a10" stroke="#4caf7d" stroke-width="2" filter="url(#glowGreen)"/>
  <text x="347" y="114" font-size="8" text-anchor="middle" fill="#4caf7d" letter-spacing="1">⛏ HARVESTER</text>
  <text x="347" y="126" font-size="8" text-anchor="middle" fill="#4caf7d">Efficiency Mk.II</text>
  <rect x="305" y="130" width="85" height="12" rx="2" fill="#0a2010"/>
  <text x="347" y="140" font-size="7" text-anchor="middle" fill="#4caf7d">✓ UNLOCKED</text>

  <!-- Drone Bay Mk.I (SELECTED/ACTIVE node highlight) -->
  <rect x="300" y="158" width="95" height="50" rx="3" fill="#1a2848" stroke="#f5a623" stroke-width="2.5" filter="url(#glowAmber)"/>
  <text x="347" y="176" font-size="8" text-anchor="middle" fill="#ffd700" letter-spacing="1">⬡ DRONE BAY</text>
  <text x="347" y="188" font-size="8" text-anchor="middle" fill="#ffd700">Mk.I Logistics</text>
  <rect x="305" y="192" width="85" height="12" rx="2" fill="#1a1000"/>
  <text x="347" y="202" font-size="7" text-anchor="middle" fill="#f5a623">✓ UNLOCKED</text>

  <!-- TIER 3 nodes -->
  <!-- Deep Scanner (active, cost shown) -->
  <rect x="465" y="96" width="100" height="55" rx="3" fill="#101828" stroke="#4a9fd4" stroke-width="2" filter="url(#glowBlue)"/>
  <text x="515" y="116" font-size="8" text-anchor="middle" fill="#4a9fd4" letter-spacing="1">⊕ SCANNER</text>
  <text x="515" y="128" font-size="8" text-anchor="middle" fill="#4a9fd4">Deep Scan Array</text>
  <line x1="474" y1="135" x2="556" y2="135" stroke="#2a3a50" stroke-width="0.5"/>
  <text x="515" y="146" font-size="7" text-anchor="middle" fill="#6a9ab4">Cost: 400 RP</text>
  <rect x="474" y="134" width="82" height="12" rx="2" fill="#0a1428" stroke="#4a9fd4" stroke-width="1"/>
  <text x="515" y="144" font-size="7" text-anchor="middle" fill="#4a9fd4">AVAILABLE</text>

  <!-- Harvester Mk.III (can unlock) -->
  <rect x="465" y="164" width="100" height="55" rx="3" fill="#101828" stroke="#4a9fd4" stroke-width="2"/>
  <text x="515" y="184" font-size="8" text-anchor="middle" fill="#4a9fd4">⛏ HARVESTER</text>
  <text x="515" y="196" font-size="8" text-anchor="middle" fill="#4a9fd4">Heavy Mk.III</text>
  <text x="515" y="210" font-size="7" text-anchor="middle" fill="#6a9ab4">Cost: 600 RP</text>

  <!-- Processing Plant upgrade (can unlock) -->
  <rect x="465" y="232" width="100" height="55" rx="3" fill="#101828" stroke="#4a9fd4" stroke-width="1.5"/>
  <text x="515" y="252" font-size="8" text-anchor="middle" fill="#4a9fd4">⚙ PROCESSING</text>
  <text x="515" y="264" font-size="8" text-anchor="middle" fill="#4a9fd4">Plant Mk.II</text>
  <text x="515" y="278" font-size="7" text-anchor="middle" fill="#6a9ab4">Cost: 800 RP</text>

  <!-- TIER 4 nodes (locked) -->
  <g opacity="0.5">
    <rect x="635" y="96" width="100" height="55" rx="3" fill="#0a0e18" stroke="#3a4060" stroke-width="1" stroke-dasharray="4,3"/>
    <text x="685" y="116" font-size="8" text-anchor="middle" fill="#4a5a70">⛏ HARVESTER</text>
    <text x="685" y="128" font-size="8" text-anchor="middle" fill="#4a5a70">Auto-Drill Mk.IV</text>
    <text x="685" y="142" font-size="7" text-anchor="middle" fill="#3a4a60">🔒 1,200 RP</text>

    <rect x="635" y="164" width="100" height="55" rx="3" fill="#0a0e18" stroke="#3a4060" stroke-width="1" stroke-dasharray="4,3"/>
    <text x="685" y="184" font-size="8" text-anchor="middle" fill="#4a5a70">⬡ DRONES</text>
    <text x="685" y="196" font-size="8" text-anchor="middle" fill="#4a5a70">Swarm Protocol</text>
    <text x="685" y="210" font-size="7" text-anchor="middle" fill="#3a4a60">🔒 1,600 RP</text>
  </g>

  <!-- TIER 5 nodes (very locked) -->
  <g opacity="0.3">
    <rect x="800" y="96" width="100" height="55" rx="3" fill="#0a0a10" stroke="#2a2a40" stroke-width="1" stroke-dasharray="3,4"/>
    <text x="850" y="120" font-size="8" text-anchor="middle" fill="#3a3a60">⚡ WARP TECH</text>
    <text x="850" y="132" font-size="8" text-anchor="middle" fill="#3a3a60">Gate Foundation</text>
    <text x="850" y="146" font-size="7" text-anchor="middle" fill="#2a2a50">🔒 5,000 RP</text>
  </g>

  <!-- Selected node info panel -->
  <rect x="130" y="300" width="800" height="190" rx="3" fill="#0a1020" stroke="#f5a623" stroke-width="1.5"/>
  <rect x="130" y="300" width="800" height="40" fill="#0d1e38" rx="3"/>
  <rect x="130" y="327" width="800" height="13" fill="#0d1e38"/>
  <line x1="130" y1="340" x2="930" y2="340" stroke="#f5a623" stroke-width="1" opacity="0.6"/>
  <text x="530" y="324" font-size="14" font-weight="bold" text-anchor="middle" fill="#ffd700">⬡  Drone Bay Mk.I Logistics — SELECTED</text>

  <g font-size="11">
    <text x="150" y="360" fill="#8a9ab0">Effect:</text>
    <text x="210" y="360" fill="#e8d0a0">Enables Cargo Drone construction. Drones automatically haul ore to storage.</text>
    <text x="150" y="380" fill="#8a9ab0">Unlocks:</text>
    <text x="210" y="380" fill="#4a9fd4">Cargo Drone (8 max)  ·  Drone Bay building  ·  Route Assignment</text>
    <text x="150" y="400" fill="#8a9ab0">Requires:</text>
    <text x="210" y="400" fill="#4caf7d">✓ Basic Harvester  ·  ✓ Survey Tool</text>
    <text x="150" y="420" fill="#8a9ab0">Cost:</text>
    <text x="210" y="420" fill="#ffd700">⬡ 250 RP</text>
    <text x="150" y="440" fill="#8a9ab0">Status:</text>
    <text x="210" y="440" fill="#4caf7d">✓ Already Unlocked (Session 01:22:05)</text>
  </g>

  <rect x="790" y="450" width="130" height="30" rx="2" fill="#0d1428" stroke="#3a4a60" stroke-width="1"/>
  <text x="855" y="469" font-size="11" text-anchor="middle" fill="#6a7a90">ALREADY OWNED</text>

  <!-- Bottom bar -->
  <rect x="0" y="506" width="960" height="34" fill="#050d20" opacity="0.92"/>
  <line x1="0" y1="506" x2="960" y2="506" stroke="#f5a623" stroke-width="0.8" opacity="0.6"/>
  <text x="480" y="527" font-size="11" text-anchor="middle" fill="#f5a623" letter-spacing="2">[ R ] CLOSE  ·  [ CLICK ] SELECT NODE  ·  [ U ] UNLOCK SELECTED  ·  RP: 2,840</text>
</svg>
